# MagicaVoxel @ Ephtracy

# group
g sink

# material
mtllib sink.mtl
usemtl palette

# normals
vn -1 0 0
vn 1 0 0
vn 0 0 1
vn 0 0 -1
vn 0 -1 0
vn 0 1 0

# texcoords
vt 0.0722656 0.5
vt 0.0800781 0.5
vt 0.0957031 0.5
vt 0.107422 0.5

# verts
v -6.5 0 8
v -6.5 0 -8
v -6.5 1 8
v -6.5 1 -8
v -5.5 22 9
v -5.5 22 -9
v -5.5 24 9
v -5.5 24 -9
v -4.5 18 8
v -4.5 18 -8
v -4.5 22 10
v -4.5 22 9
v -4.5 22 8
v -4.5 22 -8
v -4.5 22 -9
v -4.5 22 -10
v -4.5 24 10
v -4.5 24 9
v -4.5 24 -9
v -4.5 24 -10
v -3.5 18 9
v -3.5 18 8
v -3.5 18 -8
v -3.5 18 -9
v -3.5 22 9
v -3.5 22 8
v -3.5 22 -8
v -3.5 22 -9
v -0.5 27 1
v -0.5 27 -1
v -0.5 30 1
v -0.5 30 -1
v 0.5 1 4
v 0.5 1 -4
v 0.5 18 4
v 0.5 18 -4
v 0.5 30 1
v 0.5 30 -1
v 0.5 31 1
v 0.5 31 -1
v 1.5 31 1
v 1.5 31 -1
v 1.5 32 1
v 1.5 32 -1
v 3.5 29 1
v 3.5 29 -1
v 3.5 30 1
v 3.5 30 -1
v 4.5 22 8
v 4.5 22 -8
v 4.5 24 8
v 4.5 24 6
v 4.5 24 4
v 4.5 24 1
v 4.5 24 -1
v 4.5 24 -4
v 4.5 24 -6
v 4.5 24 -8
v 4.5 25 8
v 4.5 25 6
v 4.5 25 4
v 4.5 25 -4
v 4.5 25 -6
v 4.5 25 -8
v 4.5 26 8
v 4.5 26 4
v 4.5 26 -4
v 4.5 26 -8
v 4.5 29 1
v 4.5 29 -1
v -3.5 22 7
v -3.5 22 -7
v -3.5 24 7
v -3.5 24 -7
v -2.5 22 8
v -2.5 22 7
v -2.5 22 -7
v -2.5 22 -8
v -2.5 24 8
v -2.5 24 7
v -2.5 24 -7
v -2.5 24 -8
v 1.5 27 1
v 1.5 27 -1
v 1.5 29 1
v 1.5 29 -1
v 2.5 29 1
v 2.5 29 -1
v 2.5 30 1
v 2.5 30 -1
v 4.5 31 1
v 4.5 31 -1
v 4.5 32 1
v 4.5 32 -1
v 5.5 25 8
v 5.5 25 6
v 5.5 25 -6
v 5.5 25 -8
v 5.5 26 8
v 5.5 26 6
v 5.5 26 -6
v 5.5 26 -8
v 5.5 30 1
v 5.5 30 -1
v 5.5 31 1
v 5.5 31 -1
v 6.5 0 8
v 6.5 0 -8
v 6.5 1 8
v 6.5 1 4
v 6.5 1 -4
v 6.5 1 -8
v 6.5 18 9
v 6.5 18 4
v 6.5 18 -4
v 6.5 18 -9
v 6.5 22 10
v 6.5 22 9
v 6.5 22 -9
v 6.5 22 -10
v 6.5 24 10
v 6.5 24 6
v 6.5 24 4
v 6.5 24 1
v 6.5 24 -1
v 6.5 24 -4
v 6.5 24 -6
v 6.5 24 -10
v 6.5 25 6
v 6.5 25 4
v 6.5 25 -4
v 6.5 25 -6
v 6.5 26 6
v 6.5 26 4
v 6.5 26 -4
v 6.5 26 -6
v 6.5 30 1
v 6.5 30 -1
v -4.5 22 10
v -4.5 24 10
v 6.5 22 10
v 6.5 24 10
v -5.5 22 9
v -5.5 24 9
v -4.5 22 9
v -4.5 24 9
v -3.5 18 9
v -3.5 22 9
v 6.5 18 9
v 6.5 22 9
v -6.5 0 8
v -6.5 1 8
v -4.5 18 8
v -4.5 22 8
v -3.5 18 8
v -3.5 22 8
v 4.5 25 8
v 4.5 26 8
v 5.5 25 8
v 5.5 26 8
v 6.5 0 8
v 6.5 1 8
v 4.5 24 6
v 4.5 25 6
v 5.5 25 6
v 5.5 26 6
v 6.5 24 6
v 6.5 25 6
v 6.5 26 6
v 0.5 1 4
v 0.5 18 4
v 6.5 1 4
v 6.5 18 4
v -0.5 27 1
v -0.5 30 1
v 0.5 30 1
v 0.5 31 1
v 1.5 27 1
v 1.5 29 1
v 1.5 31 1
v 1.5 32 1
v 2.5 29 1
v 2.5 30 1
v 3.5 29 1
v 3.5 30 1
v 4.5 24 1
v 4.5 29 1
v 4.5 31 1
v 4.5 32 1
v 5.5 30 1
v 5.5 31 1
v 6.5 24 1
v 6.5 30 1
v 4.5 24 -4
v 4.5 25 -4
v 4.5 26 -4
v 6.5 24 -4
v 6.5 25 -4
v 6.5 26 -4
v -3.5 22 -7
v -3.5 24 -7
v -2.5 22 -7
v -2.5 24 -7
v -2.5 22 -8
v -2.5 24 -8
v 4.5 22 -8
v 4.5 24 -8
v -2.5 22 8
v -2.5 24 8
v 4.5 22 8
v 4.5 24 8
v -3.5 22 7
v -3.5 24 7
v -2.5 22 7
v -2.5 24 7
v 4.5 24 4
v 4.5 25 4
v 4.5 26 4
v 6.5 24 4
v 6.5 25 4
v 6.5 26 4
v -0.5 27 -1
v -0.5 30 -1
v 0.5 30 -1
v 0.5 31 -1
v 1.5 27 -1
v 1.5 29 -1
v 1.5 31 -1
v 1.5 32 -1
v 2.5 29 -1
v 2.5 30 -1
v 3.5 29 -1
v 3.5 30 -1
v 4.5 24 -1
v 4.5 29 -1
v 4.5 31 -1
v 4.5 32 -1
v 5.5 30 -1
v 5.5 31 -1
v 6.5 24 -1
v 6.5 30 -1
v 0.5 1 -4
v 0.5 18 -4
v 6.5 1 -4
v 6.5 18 -4
v 4.5 24 -6
v 4.5 25 -6
v 5.5 25 -6
v 5.5 26 -6
v 6.5 24 -6
v 6.5 25 -6
v 6.5 26 -6
v -6.5 0 -8
v -6.5 1 -8
v -4.5 18 -8
v -4.5 22 -8
v -3.5 18 -8
v -3.5 22 -8
v 4.5 25 -8
v 4.5 26 -8
v 5.5 25 -8
v 5.5 26 -8
v 6.5 0 -8
v 6.5 1 -8
v -5.5 22 -9
v -5.5 24 -9
v -4.5 22 -9
v -4.5 24 -9
v -3.5 18 -9
v -3.5 22 -9
v 6.5 18 -9
v 6.5 22 -9
v -4.5 22 -10
v -4.5 24 -10
v 6.5 22 -10
v 6.5 24 -10
v -6.5 0 8
v 6.5 0 8
v -6.5 0 -8
v 6.5 0 -8
v -3.5 18 9
v 6.5 18 9
v -4.5 18 8
v -3.5 18 8
v 0.5 18 4
v 6.5 18 4
v 0.5 18 -4
v 6.5 18 -4
v -4.5 18 -8
v -3.5 18 -8
v -3.5 18 -9
v 6.5 18 -9
v -4.5 22 10
v 6.5 22 10
v -5.5 22 9
v -4.5 22 9
v -3.5 22 9
v 6.5 22 9
v -4.5 22 8
v -3.5 22 8
v -4.5 22 -8
v -3.5 22 -8
v -5.5 22 -9
v -4.5 22 -9
v -3.5 22 -9
v 6.5 22 -9
v -4.5 22 -10
v 6.5 22 -10
v 4.5 25 8
v 5.5 25 8
v 4.5 25 6
v 5.5 25 6
v 4.5 25 -6
v 5.5 25 -6
v 4.5 25 -8
v 5.5 25 -8
v -0.5 27 1
v 1.5 27 1
v -0.5 27 -1
v 1.5 27 -1
v 1.5 29 1
v 2.5 29 1
v 3.5 29 1
v 4.5 29 1
v 1.5 29 -1
v 2.5 29 -1
v 3.5 29 -1
v 4.5 29 -1
v 2.5 30 1
v 3.5 30 1
v 2.5 30 -1
v 3.5 30 -1
v -6.5 1 8
v 6.5 1 8
v 0.5 1 4
v 6.5 1 4
v 0.5 1 -4
v 6.5 1 -4
v -6.5 1 -8
v 6.5 1 -8
v -2.5 22 8
v 4.5 22 8
v -3.5 22 7
v -2.5 22 7
v -3.5 22 -7
v -2.5 22 -7
v -2.5 22 -8
v 4.5 22 -8
v -4.5 24 10
v 6.5 24 10
v -5.5 24 9
v -4.5 24 9
v -2.5 24 8
v 4.5 24 8
v -3.5 24 7
v -2.5 24 7
v 4.5 24 6
v 6.5 24 6
v 4.5 24 4
v 6.5 24 4
v 4.5 24 1
v 6.5 24 1
v 4.5 24 -1
v 6.5 24 -1
v 4.5 24 -4
v 6.5 24 -4
v 4.5 24 -6
v 6.5 24 -6
v -3.5 24 -7
v -2.5 24 -7
v -2.5 24 -8
v 4.5 24 -8
v -5.5 24 -9
v -4.5 24 -9
v -4.5 24 -10
v 6.5 24 -10
v 4.5 26 8
v 5.5 26 8
v 5.5 26 6
v 6.5 26 6
v 4.5 26 4
v 6.5 26 4
v 4.5 26 -4
v 6.5 26 -4
v 5.5 26 -6
v 6.5 26 -6
v 4.5 26 -8
v 5.5 26 -8
v -0.5 30 1
v 0.5 30 1
v 5.5 30 1
v 6.5 30 1
v -0.5 30 -1
v 0.5 30 -1
v 5.5 30 -1
v 6.5 30 -1
v 0.5 31 1
v 1.5 31 1
v 4.5 31 1
v 5.5 31 1
v 0.5 31 -1
v 1.5 31 -1
v 4.5 31 -1
v 5.5 31 -1
v 1.5 32 1
v 4.5 32 1
v 1.5 32 -1
v 4.5 32 -1

# faces
f 3/2/1 2/2/1 1/2/1
f 4/2/1 2/2/1 3/2/1
f 7/2/1 6/2/1 5/2/1
f 8/2/1 6/2/1 7/2/1
f 13/2/1 10/2/1 9/2/1
f 14/2/1 10/2/1 13/2/1
f 17/2/1 12/2/1 11/2/1
f 18/2/1 12/2/1 17/2/1
f 19/2/1 16/2/1 15/2/1
f 20/2/1 16/2/1 19/2/1
f 25/2/1 22/2/1 21/2/1
f 26/2/1 22/2/1 25/2/1
f 27/2/1 24/2/1 23/2/1
f 28/2/1 24/2/1 27/2/1
f 31/3/1 30/3/1 29/3/1
f 32/3/1 30/3/1 31/3/1
f 35/2/1 34/2/1 33/2/1
f 36/2/1 34/2/1 35/2/1
f 39/3/1 38/3/1 37/3/1
f 40/3/1 38/3/1 39/3/1
f 43/3/1 42/3/1 41/3/1
f 44/3/1 42/3/1 43/3/1
f 47/3/1 46/3/1 45/3/1
f 48/3/1 46/3/1 47/3/1
f 51/2/1 50/2/1 49/2/1
f 52/2/1 50/2/1 51/2/1
f 53/2/1 50/2/1 52/2/1
f 54/2/1 50/2/1 53/2/1
f 55/2/1 50/2/1 54/2/1
f 56/2/1 50/2/1 55/2/1
f 57/2/1 50/2/1 56/2/1
f 58/2/1 50/2/1 57/2/1
f 60/3/1 53/3/1 52/3/1
f 61/3/1 53/3/1 60/3/1
f 62/3/1 57/3/1 56/3/1
f 63/3/1 57/3/1 62/3/1
f 65/4/1 61/4/1 60/4/1
f 65/4/1 60/4/1 59/4/1
f 66/4/1 61/4/1 65/4/1
f 67/1/1 64/1/1 63/1/1
f 67/1/1 63/1/1 62/1/1
f 68/1/1 64/1/1 67/1/1
f 69/3/1 55/3/1 54/3/1
f 70/3/1 55/3/1 69/3/1
f 71/2/2 72/2/2 73/2/2
f 73/2/2 72/2/2 74/2/2
f 75/2/2 76/2/2 79/2/2
f 79/2/2 76/2/2 80/2/2
f 77/2/2 78/2/2 81/2/2
f 81/2/2 78/2/2 82/2/2
f 83/3/2 84/3/2 85/3/2
f 85/3/2 84/3/2 86/3/2
f 87/3/2 88/3/2 89/3/2
f 89/3/2 88/3/2 90/3/2
f 91/3/2 92/3/2 93/3/2
f 93/3/2 92/3/2 94/3/2
f 95/4/2 96/4/2 99/4/2
f 99/4/2 96/4/2 100/4/2
f 97/1/2 98/1/2 101/1/2
f 101/1/2 98/1/2 102/1/2
f 103/3/2 104/3/2 105/3/2
f 105/3/2 104/3/2 106/3/2
f 107/2/2 108/2/2 109/2/2
f 109/2/2 108/2/2 110/2/2
f 110/2/2 108/2/2 111/2/2
f 111/2/2 108/2/2 112/2/2
f 110/2/2 111/2/2 114/2/2
f 114/2/2 111/2/2 115/2/2
f 114/2/2 115/2/2 118/2/2
f 115/2/2 116/2/2 118/2/2
f 113/2/2 114/2/2 118/2/2
f 118/2/2 116/2/2 119/2/2
f 117/2/2 118/2/2 121/2/2
f 119/2/2 120/2/2 121/2/2
f 118/2/2 119/2/2 121/2/2
f 121/2/2 120/2/2 122/2/2
f 122/2/2 120/2/2 123/2/2
f 123/2/2 120/2/2 124/2/2
f 124/2/2 120/2/2 125/2/2
f 125/2/2 120/2/2 126/2/2
f 126/2/2 120/2/2 127/2/2
f 127/2/2 120/2/2 128/2/2
f 122/3/2 123/3/2 129/3/2
f 129/3/2 123/3/2 130/3/2
f 126/3/2 127/3/2 131/3/2
f 131/3/2 127/3/2 132/3/2
f 129/4/2 130/4/2 133/4/2
f 133/4/2 130/4/2 134/4/2
f 131/1/2 132/1/2 135/1/2
f 135/1/2 132/1/2 136/1/2
f 124/3/2 125/3/2 137/3/2
f 137/3/2 125/3/2 138/3/2
f 141/2/3 140/2/3 139/2/3
f 142/2/3 140/2/3 141/2/3
f 145/2/3 144/2/3 143/2/3
f 146/2/3 144/2/3 145/2/3
f 149/2/3 148/2/3 147/2/3
f 150/2/3 148/2/3 149/2/3
f 155/2/3 154/2/3 153/2/3
f 156/2/3 154/2/3 155/2/3
f 159/4/3 158/4/3 157/4/3
f 160/4/3 158/4/3 159/4/3
f 161/2/3 152/2/3 151/2/3
f 162/2/3 152/2/3 161/2/3
f 165/3/3 164/3/3 163/3/3
f 167/3/3 165/3/3 163/3/3
f 168/4/3 166/4/3 165/4/3
f 168/3/3 165/3/3 167/3/3
f 169/4/3 166/4/3 168/4/3
f 172/2/3 171/2/3 170/2/3
f 173/2/3 171/2/3 172/2/3
f 176/3/3 175/3/3 174/3/3
f 178/3/3 176/3/3 174/3/3
f 178/3/3 177/3/3 176/3/3
f 179/3/3 177/3/3 178/3/3
f 180/3/3 177/3/3 179/3/3
f 182/3/3 181/3/3 180/3/3
f 182/3/3 180/3/3 179/3/3
f 183/3/3 181/3/3 182/3/3
f 185/3/3 181/3/3 183/3/3
f 187/3/3 185/3/3 184/3/3
f 188/3/3 181/3/3 185/3/3
f 188/3/3 185/3/3 187/3/3
f 189/3/3 181/3/3 188/3/3
f 190/3/3 187/3/3 186/3/3
f 190/3/3 188/3/3 187/3/3
f 191/3/3 188/3/3 190/3/3
f 192/3/3 190/3/3 186/3/3
f 193/3/3 190/3/3 192/3/3
f 197/3/3 195/3/3 194/3/3
f 198/1/3 196/1/3 195/1/3
f 198/3/3 195/3/3 197/3/3
f 199/1/3 196/1/3 198/1/3
f 202/2/3 201/2/3 200/2/3
f 203/2/3 201/2/3 202/2/3
f 206/2/3 205/2/3 204/2/3
f 207/2/3 205/2/3 206/2/3
f 208/2/4 209/2/4 210/2/4
f 210/2/4 209/2/4 211/2/4
f 212/2/4 213/2/4 214/2/4
f 214/2/4 213/2/4 215/2/4
f 216/3/4 217/3/4 219/3/4
f 217/4/4 218/4/4 220/4/4
f 219/3/4 217/3/4 220/3/4
f 220/4/4 218/4/4 221/4/4
f 222/3/4 223/3/4 224/3/4
f 222/3/4 224/3/4 226/3/4
f 224/3/4 225/3/4 226/3/4
f 226/3/4 225/3/4 227/3/4
f 227/3/4 225/3/4 228/3/4
f 228/3/4 229/3/4 230/3/4
f 227/3/4 228/3/4 230/3/4
f 230/3/4 229/3/4 231/3/4
f 231/3/4 229/3/4 233/3/4
f 232/3/4 233/3/4 235/3/4
f 233/3/4 229/3/4 236/3/4
f 235/3/4 233/3/4 236/3/4
f 236/3/4 229/3/4 237/3/4
f 234/3/4 235/3/4 238/3/4
f 235/3/4 236/3/4 238/3/4
f 238/3/4 236/3/4 239/3/4
f 234/3/4 238/3/4 240/3/4
f 240/3/4 238/3/4 241/3/4
f 242/2/4 243/2/4 244/2/4
f 244/2/4 243/2/4 245/2/4
f 246/3/4 247/3/4 248/3/4
f 246/3/4 248/3/4 250/3/4
f 248/1/4 249/1/4 251/1/4
f 250/3/4 248/3/4 251/3/4
f 251/1/4 249/1/4 252/1/4
f 255/2/4 256/2/4 257/2/4
f 257/2/4 256/2/4 258/2/4
f 259/1/4 260/1/4 261/1/4
f 261/1/4 260/1/4 262/1/4
f 253/2/4 254/2/4 263/2/4
f 263/2/4 254/2/4 264/2/4
f 265/2/4 266/2/4 267/2/4
f 267/2/4 266/2/4 268/2/4
f 269/2/4 270/2/4 271/2/4
f 271/2/4 270/2/4 272/2/4
f 273/2/4 274/2/4 275/2/4
f 275/2/4 274/2/4 276/2/4
f 279/2/5 278/2/5 277/2/5
f 280/2/5 278/2/5 279/2/5
f 284/2/5 282/2/5 281/2/5
f 285/2/5 282/2/5 284/2/5
f 285/2/5 284/2/5 283/2/5
f 286/2/5 282/2/5 285/2/5
f 287/2/5 285/2/5 283/2/5
f 289/2/5 287/2/5 283/2/5
f 289/2/5 288/2/5 287/2/5
f 290/2/5 288/2/5 289/2/5
f 291/2/5 288/2/5 290/2/5
f 292/2/5 288/2/5 291/2/5
f 296/2/5 294/2/5 293/2/5
f 297/2/5 294/2/5 296/2/5
f 298/2/5 294/2/5 297/2/5
f 299/2/5 296/2/5 295/2/5
f 299/2/5 297/2/5 296/2/5
f 300/2/5 297/2/5 299/2/5
f 301/2/5 299/2/5 295/2/5
f 303/2/5 301/2/5 295/2/5
f 303/2/5 302/2/5 301/2/5
f 304/2/5 302/2/5 303/2/5
f 305/2/5 302/2/5 304/2/5
f 307/2/5 305/2/5 304/2/5
f 307/2/5 306/2/5 305/2/5
f 308/2/5 306/2/5 307/2/5
f 311/4/5 310/4/5 309/4/5
f 312/4/5 310/4/5 311/4/5
f 315/1/5 314/1/5 313/1/5
f 316/1/5 314/1/5 315/1/5
f 319/3/5 318/3/5 317/3/5
f 320/3/5 318/3/5 319/3/5
f 325/3/5 322/3/5 321/3/5
f 326/3/5 322/3/5 325/3/5
f 327/3/5 324/3/5 323/3/5
f 328/3/5 324/3/5 327/3/5
f 331/3/5 330/3/5 329/3/5
f 332/3/5 330/3/5 331/3/5
f 333/2/6 334/2/6 335/2/6
f 335/2/6 334/2/6 336/2/6
f 333/2/6 335/2/6 337/2/6
f 333/2/6 337/2/6 339/2/6
f 337/2/6 338/2/6 339/2/6
f 339/2/6 338/2/6 340/2/6
f 341/2/6 342/2/6 344/2/6
f 343/2/6 344/2/6 345/2/6
f 344/2/6 342/2/6 346/2/6
f 345/2/6 344/2/6 346/2/6
f 346/2/6 342/2/6 347/2/6
f 347/2/6 342/2/6 348/2/6
f 349/2/6 350/2/6 352/2/6
f 352/2/6 350/2/6 353/2/6
f 351/2/6 352/2/6 353/2/6
f 353/2/6 350/2/6 354/2/6
f 351/2/6 353/2/6 355/2/6
f 355/2/6 353/2/6 356/2/6
f 354/2/6 350/2/6 357/2/6
f 357/2/6 350/2/6 358/2/6
f 359/2/6 360/2/6 361/2/6
f 361/2/6 360/2/6 362/2/6
f 363/2/6 364/2/6 365/2/6
f 365/2/6 364/2/6 366/2/6
f 351/2/6 355/2/6 369/2/6
f 369/2/6 370/2/6 371/2/6
f 367/2/6 368/2/6 372/2/6
f 369/2/6 371/2/6 373/2/6
f 371/2/6 372/2/6 373/2/6
f 351/2/6 369/2/6 373/2/6
f 373/2/6 372/2/6 374/2/6
f 374/2/6 372/2/6 375/2/6
f 372/2/6 368/2/6 376/2/6
f 375/2/6 372/2/6 376/2/6
f 377/4/6 378/4/6 379/4/6
f 377/4/6 379/4/6 381/4/6
f 379/4/6 380/4/6 381/4/6
f 381/4/6 380/4/6 382/4/6
f 383/1/6 384/1/6 385/1/6
f 385/1/6 384/1/6 386/1/6
f 383/1/6 385/1/6 387/1/6
f 387/1/6 385/1/6 388/1/6
f 389/3/6 390/3/6 393/3/6
f 393/3/6 390/3/6 394/3/6
f 391/3/6 392/3/6 395/3/6
f 395/3/6 392/3/6 396/3/6
f 397/3/6 398/3/6 401/3/6
f 401/3/6 398/3/6 402/3/6
f 399/3/6 400/3/6 403/3/6
f 403/3/6 400/3/6 404/3/6
f 405/3/6 406/3/6 407/3/6
f 407/3/6 406/3/6 408/3/6
