# MagicaVoxel @ Ephtracy

# group
g toilet

# material
mtllib toilet.mtl
usemtl palette

# normals
vn -1 0 0
vn 1 0 0
vn 0 0 1
vn 0 0 -1
vn 0 -1 0
vn 0 1 0

# texcoords
vt 0.0800781 0.5
vt 0.0839844 0.5

# verts
v -21 0 16
v -21 0 -16
v -21 4 16
v -21 4 -16
v -19 14 12
v -19 14 -12
v -19 20 12
v -19 20 -12
v -19 21 12
v -19 21 -12
v -18 4 14
v -18 4 13
v -18 4 -13
v -18 4 -14
v -18 5 14
v -18 5 13
v -18 5 -13
v -18 5 -14
v -15 4 8
v -15 4 -8
v -15 14 8
v -15 14 -8
v 7 16 6
v 7 16 2
v 7 16 -2
v 7 16 -6
v 7 20 6
v 7 20 -6
v 7 21 6
v 7 21 -6
v 9 14 2
v 9 14 -2
v 9 16 2
v 9 16 -2
v 11 10 2
v 11 10 -2
v 11 14 2
v 11 14 -2
v 11 42 16
v 11 42 -16
v 11 48 16
v 11 48 -16
v 13 20 16
v 13 20 -16
v 13 42 16
v 13 42 -16
v 13 44 19
v 13 44 18
v 13 44 16
v 13 44 -16
v 13 44 -18
v 13 44 -19
v 13 46 19
v 13 46 18
v 13 46 16
v 13 46 -16
v 13 46 -18
v 13 46 -19
v 15 16 8
v 15 16 -8
v 15 20 8
v 15 20 -8
v 17 4 14
v 17 4 13
v 17 4 -13
v 17 4 -14
v 17 5 14
v 17 5 13
v 17 5 -13
v 17 5 -14
v -17 4 14
v -17 4 13
v -17 4 -13
v -17 4 -14
v -17 5 14
v -17 5 13
v -17 5 -13
v -17 5 -14
v -13 18 6
v -13 18 -6
v -13 20 6
v -13 20 -6
v -13 21 6
v -13 21 -6
v -9 16 6
v -9 16 -6
v -9 18 6
v -9 18 -6
v -1 12 2
v -1 12 -2
v -1 16 2
v -1 16 -2
v 9 10 2
v 9 10 -2
v 9 12 2
v 9 12 -2
v 11 14 12
v 11 14 10
v 11 14 -10
v 11 14 -12
v 11 18 10
v 11 18 -10
v 11 20 12
v 11 20 -12
v 11 21 12
v 11 21 -12
v 13 14 10
v 13 14 8
v 13 14 -8
v 13 14 -10
v 13 16 8
v 13 16 -8
v 13 18 10
v 13 18 -10
v 17 44 19
v 17 44 18
v 17 44 16
v 17 44 -16
v 17 44 -18
v 17 44 -19
v 17 46 19
v 17 46 18
v 17 46 16
v 17 46 -16
v 17 46 -18
v 17 46 -19
v 18 4 14
v 18 4 13
v 18 4 -13
v 18 4 -14
v 18 5 14
v 18 5 13
v 18 5 -13
v 18 5 -14
v 19 20 16
v 19 20 8
v 19 20 -8
v 19 20 -16
v 19 22 16
v 19 22 -16
v 21 0 16
v 21 0 -16
v 21 4 16
v 21 4 8
v 21 4 -8
v 21 4 -16
v 21 20 8
v 21 20 -8
v 21 22 16
v 21 22 -16
v 21 48 16
v 21 48 -16
v 13 44 19
v 13 46 19
v 17 44 19
v 17 46 19
v -21 0 16
v -21 4 16
v 11 42 16
v 11 48 16
v 13 20 16
v 13 42 16
v 13 44 16
v 13 46 16
v 17 44 16
v 17 46 16
v 19 20 16
v 19 22 16
v 21 0 16
v 21 4 16
v 21 22 16
v 21 48 16
v -18 4 14
v -18 5 14
v -17 4 14
v -17 5 14
v 17 4 14
v 17 5 14
v 18 4 14
v 18 5 14
v -19 14 12
v -19 20 12
v -19 21 12
v 11 14 12
v 11 20 12
v 11 21 12
v 11 14 10
v 11 18 10
v 13 14 10
v 13 18 10
v -15 4 8
v -15 14 8
v 13 14 8
v 13 16 8
v 15 16 8
v 15 20 8
v 19 20 8
v 21 4 8
v 21 20 8
v -1 12 -2
v -1 16 -2
v 7 16 -2
v 9 10 -2
v 9 12 -2
v 9 14 -2
v 9 16 -2
v 11 10 -2
v 11 14 -2
v -13 18 -6
v -13 20 -6
v -13 21 -6
v -9 16 -6
v -9 18 -6
v 7 16 -6
v 7 20 -6
v 7 21 -6
v -18 4 -13
v -18 5 -13
v -17 4 -13
v -17 5 -13
v 17 4 -13
v 17 5 -13
v 18 4 -13
v 18 5 -13
v -18 4 13
v -18 5 13
v -17 4 13
v -17 5 13
v 17 4 13
v 17 5 13
v 18 4 13
v 18 5 13
v -13 18 6
v -13 20 6
v -13 21 6
v -9 16 6
v -9 18 6
v 7 16 6
v 7 20 6
v 7 21 6
v -1 12 2
v -1 16 2
v 7 16 2
v 9 10 2
v 9 12 2
v 9 14 2
v 9 16 2
v 11 10 2
v 11 14 2
v -15 4 -8
v -15 14 -8
v 13 14 -8
v 13 16 -8
v 15 16 -8
v 15 20 -8
v 19 20 -8
v 21 4 -8
v 21 20 -8
v 11 14 -10
v 11 18 -10
v 13 14 -10
v 13 18 -10
v -19 14 -12
v -19 20 -12
v -19 21 -12
v 11 14 -12
v 11 20 -12
v 11 21 -12
v -18 4 -14
v -18 5 -14
v -17 4 -14
v -17 5 -14
v 17 4 -14
v 17 5 -14
v 18 4 -14
v 18 5 -14
v -21 0 -16
v -21 4 -16
v 11 42 -16
v 11 48 -16
v 13 20 -16
v 13 42 -16
v 13 44 -16
v 13 46 -16
v 17 44 -16
v 17 46 -16
v 19 20 -16
v 19 22 -16
v 21 0 -16
v 21 4 -16
v 21 22 -16
v 21 48 -16
v 13 44 -19
v 13 46 -19
v 17 44 -19
v 17 46 -19
v -21 0 16
v 21 0 16
v -21 0 -16
v 21 0 -16
v -19 14 12
v 11 14 12
v 11 14 10
v 13 14 10
v -15 14 8
v 13 14 8
v 9 14 2
v 11 14 2
v 9 14 -2
v 11 14 -2
v -15 14 -8
v 13 14 -8
v 11 14 -10
v 13 14 -10
v -19 14 -12
v 11 14 -12
v 7 16 2
v 9 16 2
v 7 16 -2
v 9 16 -2
v 13 20 16
v 19 20 16
v 15 20 8
v 19 20 8
v 15 20 -8
v 19 20 -8
v 13 20 -16
v 19 20 -16
v 19 22 16
v 21 22 16
v 19 22 -16
v 21 22 -16
v 11 42 16
v 13 42 16
v 11 42 -16
v 13 42 -16
v 13 44 19
v 17 44 19
v 13 44 18
v 17 44 18
v 13 44 16
v 17 44 16
v 13 44 -16
v 17 44 -16
v 13 44 -18
v 17 44 -18
v 13 44 -19
v 17 44 -19
v -21 4 16
v 21 4 16
v -18 4 14
v -17 4 14
v 17 4 14
v 18 4 14
v -18 4 13
v -17 4 13
v 17 4 13
v 18 4 13
v -15 4 8
v 21 4 8
v -15 4 -8
v 21 4 -8
v -18 4 -13
v -17 4 -13
v 17 4 -13
v 18 4 -13
v -18 4 -14
v -17 4 -14
v 17 4 -14
v 18 4 -14
v -21 4 -16
v 21 4 -16
v -18 5 14
v -17 5 14
v 17 5 14
v 18 5 14
v -18 5 13
v -17 5 13
v 17 5 13
v 18 5 13
v -18 5 -13
v -17 5 -13
v 17 5 -13
v 18 5 -13
v -18 5 -14
v -17 5 -14
v 17 5 -14
v 18 5 -14
v 9 10 2
v 11 10 2
v 9 10 -2
v 11 10 -2
v -1 12 2
v 9 12 2
v -1 12 -2
v 9 12 -2
v 13 16 8
v 15 16 8
v -9 16 6
v 7 16 6
v -1 16 2
v 7 16 2
v -1 16 -2
v 7 16 -2
v -9 16 -6
v 7 16 -6
v 13 16 -8
v 15 16 -8
v 11 18 10
v 13 18 10
v -13 18 6
v -9 18 6
v -13 18 -6
v -9 18 -6
v 11 18 -10
v 13 18 -10
v 19 20 8
v 21 20 8
v 19 20 -8
v 21 20 -8
v -19 21 12
v 11 21 12
v -13 21 6
v 7 21 6
v -13 21 -6
v 7 21 -6
v -19 21 -12
v 11 21 -12
v 13 46 19
v 17 46 19
v 13 46 18
v 17 46 18
v 13 46 16
v 17 46 16
v 13 46 -16
v 17 46 -16
v 13 46 -18
v 17 46 -18
v 13 46 -19
v 17 46 -19
v 11 48 16
v 21 48 16
v 11 48 -16
v 21 48 -16

# faces
f 3/1/1 2/1/1 1/1/1
f 4/1/1 2/1/1 3/1/1
f 7/1/1 6/1/1 5/1/1
f 8/1/1 6/1/1 7/1/1
f 9/2/1 8/2/1 7/2/1
f 10/2/1 8/2/1 9/2/1
f 15/2/1 12/2/1 11/2/1
f 16/2/1 12/2/1 15/2/1
f 17/2/1 14/2/1 13/2/1
f 18/2/1 14/2/1 17/2/1
f 21/1/1 20/1/1 19/1/1
f 22/1/1 20/1/1 21/1/1
f 27/1/1 24/1/1 23/1/1
f 27/1/1 26/1/1 25/1/1
f 27/1/1 25/1/1 24/1/1
f 28/1/1 26/1/1 27/1/1
f 29/2/1 28/2/1 27/2/1
f 30/2/1 28/2/1 29/2/1
f 33/1/1 32/1/1 31/1/1
f 34/1/1 32/1/1 33/1/1
f 37/1/1 36/1/1 35/1/1
f 38/1/1 36/1/1 37/1/1
f 41/1/1 40/1/1 39/1/1
f 42/1/1 40/1/1 41/1/1
f 45/1/1 44/1/1 43/1/1
f 46/1/1 44/1/1 45/1/1
f 53/2/1 48/2/1 47/2/1
f 54/1/1 49/1/1 48/1/1
f 54/2/1 48/2/1 53/2/1
f 55/1/1 49/1/1 54/1/1
f 56/1/1 51/1/1 50/1/1
f 57/2/1 52/2/1 51/2/1
f 57/1/1 51/1/1 56/1/1
f 58/2/1 52/2/1 57/2/1
f 61/1/1 60/1/1 59/1/1
f 62/1/1 60/1/1 61/1/1
f 67/2/1 64/2/1 63/2/1
f 68/2/1 64/2/1 67/2/1
f 69/2/1 66/2/1 65/2/1
f 70/2/1 66/2/1 69/2/1
f 71/2/2 72/2/2 75/2/2
f 75/2/2 72/2/2 76/2/2
f 73/2/2 74/2/2 77/2/2
f 77/2/2 74/2/2 78/2/2
f 79/1/2 80/1/2 81/1/2
f 81/1/2 80/1/2 82/1/2
f 81/2/2 82/2/2 83/2/2
f 83/2/2 82/2/2 84/2/2
f 85/1/2 86/1/2 87/1/2
f 87/1/2 86/1/2 88/1/2
f 89/1/2 90/1/2 91/1/2
f 91/1/2 90/1/2 92/1/2
f 93/1/2 94/1/2 95/1/2
f 95/1/2 94/1/2 96/1/2
f 97/1/2 98/1/2 101/1/2
f 99/1/2 100/1/2 102/1/2
f 97/1/2 101/1/2 103/1/2
f 101/1/2 102/1/2 103/1/2
f 102/1/2 100/1/2 104/1/2
f 103/1/2 102/1/2 104/1/2
f 103/2/2 104/2/2 105/2/2
f 105/2/2 104/2/2 106/2/2
f 107/1/2 108/1/2 111/1/2
f 109/1/2 110/1/2 112/1/2
f 107/1/2 111/1/2 113/1/2
f 111/1/2 112/1/2 113/1/2
f 112/1/2 110/1/2 114/1/2
f 113/1/2 112/1/2 114/1/2
f 115/2/2 116/2/2 121/2/2
f 116/1/2 117/1/2 122/1/2
f 121/2/2 116/2/2 122/2/2
f 122/1/2 117/1/2 123/1/2
f 118/1/2 119/1/2 124/1/2
f 119/2/2 120/2/2 125/2/2
f 124/1/2 119/1/2 125/1/2
f 125/2/2 120/2/2 126/2/2
f 127/2/2 128/2/2 131/2/2
f 131/2/2 128/2/2 132/2/2
f 129/2/2 130/2/2 133/2/2
f 133/2/2 130/2/2 134/2/2
f 135/1/2 136/1/2 139/1/2
f 137/1/2 138/1/2 139/1/2
f 136/1/2 137/1/2 139/1/2
f 139/1/2 138/1/2 140/1/2
f 141/1/2 142/1/2 143/1/2
f 143/1/2 142/1/2 144/1/2
f 144/1/2 142/1/2 145/1/2
f 145/1/2 142/1/2 146/1/2
f 144/1/2 145/1/2 147/1/2
f 147/1/2 145/1/2 148/1/2
f 149/1/2 150/1/2 151/1/2
f 151/1/2 150/1/2 152/1/2
f 155/2/3 154/2/3 153/2/3
f 156/2/3 154/2/3 155/2/3
f 162/1/3 160/1/3 159/1/3
f 163/1/3 160/1/3 162/1/3
f 164/1/3 160/1/3 163/1/3
f 165/1/3 162/1/3 161/1/3
f 165/1/3 163/1/3 162/1/3
f 166/1/3 160/1/3 164/1/3
f 167/1/3 165/1/3 161/1/3
f 167/1/3 166/1/3 165/1/3
f 168/1/3 166/1/3 167/1/3
f 169/1/3 158/1/3 157/1/3
f 170/1/3 158/1/3 169/1/3
f 171/1/3 166/1/3 168/1/3
f 172/1/3 160/1/3 166/1/3
f 172/1/3 166/1/3 171/1/3
f 175/2/3 174/2/3 173/2/3
f 176/2/3 174/2/3 175/2/3
f 179/2/3 178/2/3 177/2/3
f 180/2/3 178/2/3 179/2/3
f 184/1/3 182/1/3 181/1/3
f 185/2/3 183/2/3 182/2/3
f 185/1/3 182/1/3 184/1/3
f 186/2/3 183/2/3 185/2/3
f 189/1/3 188/1/3 187/1/3
f 190/1/3 188/1/3 189/1/3
f 193/1/3 192/1/3 191/1/3
f 195/1/3 194/1/3 193/1/3
f 197/1/3 196/1/3 195/1/3
f 198/1/3 193/1/3 191/1/3
f 198/1/3 195/1/3 193/1/3
f 198/1/3 197/1/3 195/1/3
f 199/1/3 197/1/3 198/1/3
f 202/1/3 201/1/3 200/1/3
f 204/1/3 202/1/3 200/1/3
f 205/1/3 202/1/3 204/1/3
f 206/1/3 202/1/3 205/1/3
f 207/1/3 204/1/3 203/1/3
f 207/1/3 205/1/3 204/1/3
f 208/1/3 205/1/3 207/1/3
f 213/1/3 210/1/3 209/1/3
f 214/1/3 213/1/3 212/1/3
f 215/2/3 211/2/3 210/2/3
f 215/1/3 213/1/3 214/1/3
f 215/1/3 210/1/3 213/1/3
f 216/2/3 211/2/3 215/2/3
f 219/2/3 218/2/3 217/2/3
f 220/2/3 218/2/3 219/2/3
f 223/2/3 222/2/3 221/2/3
f 224/2/3 222/2/3 223/2/3
f 225/2/4 226/2/4 227/2/4
f 227/2/4 226/2/4 228/2/4
f 229/2/4 230/2/4 231/2/4
f 231/2/4 230/2/4 232/2/4
f 233/1/4 234/1/4 237/1/4
f 236/1/4 237/1/4 238/1/4
f 234/2/4 235/2/4 239/2/4
f 238/1/4 237/1/4 239/1/4
f 237/1/4 234/1/4 239/1/4
f 239/2/4 235/2/4 240/2/4
f 241/1/4 242/1/4 243/1/4
f 241/1/4 243/1/4 245/1/4
f 245/1/4 243/1/4 246/1/4
f 246/1/4 243/1/4 247/1/4
f 244/1/4 245/1/4 248/1/4
f 245/1/4 246/1/4 248/1/4
f 248/1/4 246/1/4 249/1/4
f 250/1/4 251/1/4 252/1/4
f 252/1/4 253/1/4 254/1/4
f 254/1/4 255/1/4 256/1/4
f 250/1/4 252/1/4 257/1/4
f 252/1/4 254/1/4 257/1/4
f 254/1/4 256/1/4 257/1/4
f 257/1/4 256/1/4 258/1/4
f 259/1/4 260/1/4 261/1/4
f 261/1/4 260/1/4 262/1/4
f 263/1/4 264/1/4 266/1/4
f 264/2/4 265/2/4 267/2/4
f 266/1/4 264/1/4 267/1/4
f 267/2/4 265/2/4 268/2/4
f 269/2/4 270/2/4 271/2/4
f 271/2/4 270/2/4 272/2/4
f 273/2/4 274/2/4 275/2/4
f 275/2/4 274/2/4 276/2/4
f 279/1/4 280/1/4 282/1/4
f 282/1/4 280/1/4 283/1/4
f 283/1/4 280/1/4 284/1/4
f 281/1/4 282/1/4 285/1/4
f 282/1/4 283/1/4 285/1/4
f 284/1/4 280/1/4 286/1/4
f 281/1/4 285/1/4 287/1/4
f 285/1/4 286/1/4 287/1/4
f 287/1/4 286/1/4 288/1/4
f 277/1/4 278/1/4 289/1/4
f 289/1/4 278/1/4 290/1/4
f 288/1/4 286/1/4 291/1/4
f 286/1/4 280/1/4 292/1/4
f 291/1/4 286/1/4 292/1/4
f 293/2/4 294/2/4 295/2/4
f 295/2/4 294/2/4 296/2/4
f 299/1/5 298/1/5 297/1/5
f 300/1/5 298/1/5 299/1/5
f 303/1/5 302/1/5 301/1/5
f 305/1/5 303/1/5 301/1/5
f 305/1/5 304/1/5 303/1/5
f 306/1/5 304/1/5 305/1/5
f 309/1/5 308/1/5 307/1/5
f 310/1/5 308/1/5 309/1/5
f 311/1/5 305/1/5 301/1/5
f 313/1/5 312/1/5 311/1/5
f 314/1/5 312/1/5 313/1/5
f 315/1/5 311/1/5 301/1/5
f 315/1/5 313/1/5 311/1/5
f 316/1/5 313/1/5 315/1/5
f 319/1/5 318/1/5 317/1/5
f 320/1/5 318/1/5 319/1/5
f 323/1/5 322/1/5 321/1/5
f 324/1/5 322/1/5 323/1/5
f 325/1/5 323/1/5 321/1/5
f 327/1/5 325/1/5 321/1/5
f 327/1/5 326/1/5 325/1/5
f 328/1/5 326/1/5 327/1/5
f 331/1/5 330/1/5 329/1/5
f 332/1/5 330/1/5 331/1/5
f 335/1/5 334/1/5 333/1/5
f 336/1/5 334/1/5 335/1/5
f 339/2/5 338/2/5 337/2/5
f 340/2/5 338/2/5 339/2/5
f 341/1/5 340/1/5 339/1/5
f 342/1/5 340/1/5 341/1/5
f 345/1/5 344/1/5 343/1/5
f 346/1/5 344/1/5 345/1/5
f 347/2/5 346/2/5 345/2/5
f 348/2/5 346/2/5 347/2/5
f 349/1/6 350/1/6 351/1/6
f 351/1/6 350/1/6 352/1/6
f 352/1/6 350/1/6 353/1/6
f 353/1/6 350/1/6 354/1/6
f 349/1/6 351/1/6 355/1/6
f 352/1/6 353/1/6 356/1/6
f 356/1/6 353/1/6 357/1/6
f 354/1/6 350/1/6 358/1/6
f 356/1/6 357/1/6 359/1/6
f 357/1/6 358/1/6 359/1/6
f 355/1/6 356/1/6 359/1/6
f 358/1/6 350/1/6 360/1/6
f 359/1/6 358/1/6 360/1/6
f 355/1/6 359/1/6 361/1/6
f 349/1/6 355/1/6 363/1/6
f 361/1/6 362/1/6 363/1/6
f 355/1/6 361/1/6 363/1/6
f 363/1/6 362/1/6 364/1/6
f 364/1/6 362/1/6 365/1/6
f 365/1/6 362/1/6 366/1/6
f 349/1/6 363/1/6 367/1/6
f 364/1/6 365/1/6 368/1/6
f 368/1/6 365/1/6 369/1/6
f 366/1/6 362/1/6 370/1/6
f 368/1/6 369/1/6 371/1/6
f 369/1/6 370/1/6 371/1/6
f 349/1/6 367/1/6 371/1/6
f 367/1/6 368/1/6 371/1/6
f 370/1/6 362/1/6 372/1/6
f 371/1/6 370/1/6 372/1/6
f 373/2/6 374/2/6 377/2/6
f 377/2/6 374/2/6 378/2/6
f 375/2/6 376/2/6 379/2/6
f 379/2/6 376/2/6 380/2/6
f 381/2/6 382/2/6 385/2/6
f 385/2/6 382/2/6 386/2/6
f 383/2/6 384/2/6 387/2/6
f 387/2/6 384/2/6 388/2/6
f 389/1/6 390/1/6 391/1/6
f 391/1/6 390/1/6 392/1/6
f 393/1/6 394/1/6 395/1/6
f 395/1/6 394/1/6 396/1/6
f 399/1/6 400/1/6 401/1/6
f 401/1/6 400/1/6 402/1/6
f 399/1/6 401/1/6 403/1/6
f 399/1/6 403/1/6 405/1/6
f 403/1/6 404/1/6 405/1/6
f 405/1/6 404/1/6 406/1/6
f 397/1/6 398/1/6 407/1/6
f 407/1/6 398/1/6 408/1/6
f 411/1/6 412/1/6 413/1/6
f 413/1/6 412/1/6 414/1/6
f 409/1/6 410/1/6 415/1/6
f 415/1/6 410/1/6 416/1/6
f 417/1/6 418/1/6 419/1/6
f 419/1/6 418/1/6 420/1/6
f 421/2/6 422/2/6 423/2/6
f 423/2/6 422/2/6 424/2/6
f 421/2/6 423/2/6 425/2/6
f 424/2/6 422/2/6 426/2/6
f 421/2/6 425/2/6 427/2/6
f 425/2/6 426/2/6 427/2/6
f 426/2/6 422/2/6 428/2/6
f 427/2/6 426/2/6 428/2/6
f 429/2/6 430/2/6 431/2/6
f 431/2/6 430/2/6 432/2/6
f 431/1/6 432/1/6 433/1/6
f 433/1/6 432/1/6 434/1/6
f 435/1/6 436/1/6 437/1/6
f 437/1/6 436/1/6 438/1/6
f 437/2/6 438/2/6 439/2/6
f 439/2/6 438/2/6 440/2/6
f 441/1/6 442/1/6 443/1/6
f 443/1/6 442/1/6 444/1/6
