# MagicaVoxel @ Ephtracy

# group
g tub

# material
mtllib tub.mtl
usemtl palette

# normals
vn -1 0 0
vn 1 0 0
vn 0 0 1
vn 0 0 -1
vn 0 -1 0
vn 0 1 0

# texcoords
vt 0.0761719 0.5
vt 0.0800781 0.5
vt 0.0957031 0.5
vt 0.107422 0.5

# verts
v -40 0 20
v -40 0 -20
v -40 1 20
v -40 1 -20
v -40 10 14
v -40 10 -14
v -40 13 14
v -40 13 -14
v -39 1 14
v -39 1 -14
v -39 10 17
v -39 10 14
v -39 10 -14
v -39 10 -17
v -39 13 17
v -39 13 14
v -39 13 -14
v -39 13 -17
v -38 1 17
v -38 1 14
v -38 1 -14
v -38 1 -17
v -38 10 18
v -38 10 17
v -38 10 14
v -38 10 -14
v -38 10 -17
v -38 10 -18
v -38 13 18
v -38 13 17
v -38 13 -17
v -38 13 -18
v -35 1 18
v -35 1 17
v -35 1 -17
v -35 1 -18
v -35 10 19
v -35 10 18
v -35 10 17
v -35 10 -17
v -35 10 -18
v -35 10 -19
v -35 13 19
v -35 13 18
v -35 13 -18
v -35 13 -19
v 30 13 2
v 30 13 -2
v 30 15 2
v 30 15 -2
v 31 15 1
v 31 15 -1
v 31 18 1
v 31 18 -1
v 33 13 1
v 33 13 -1
v 33 14 1
v 33 14 -1
v 35 19 1
v 35 19 -1
v 35 20 1
v 35 20 -1
v 36 8 14
v 36 8 -14
v 36 13 14
v 36 13 -14
v 36 18 1
v 36 18 -1
v 36 19 2
v 36 19 1
v 36 19 -1
v 36 19 -2
v 36 20 2
v 36 20 1
v 36 20 -1
v 36 20 -2
v 36 21 1
v 36 21 -1
v 37 13 1
v 37 13 -1
v 37 16 1
v 37 16 -1
v -36 8 14
v -36 8 -14
v -36 13 14
v -36 13 -14
v 31 13 1
v 31 13 -1
v 31 14 1
v 31 14 -1
v 33 15 1
v 33 15 -1
v 33 16 1
v 33 16 -1
v 34 13 2
v 34 13 -2
v 34 15 2
v 34 15 -2
v 35 1 18
v 35 1 17
v 35 1 -17
v 35 1 -18
v 35 10 19
v 35 10 18
v 35 10 17
v 35 10 -17
v 35 10 -18
v 35 10 -19
v 35 13 19
v 35 13 18
v 35 13 -18
v 35 13 -19
v 38 1 17
v 38 1 14
v 38 1 -14
v 38 1 -17
v 38 10 18
v 38 10 17
v 38 10 14
v 38 10 -14
v 38 10 -17
v 38 10 -18
v 38 13 18
v 38 13 17
v 38 13 -17
v 38 13 -18
v 38 18 1
v 38 18 -1
v 38 19 2
v 38 19 1
v 38 19 -1
v 38 19 -2
v 38 20 2
v 38 20 1
v 38 20 -1
v 38 20 -2
v 38 21 1
v 38 21 -1
v 39 1 14
v 39 1 -14
v 39 10 17
v 39 10 14
v 39 10 -14
v 39 10 -17
v 39 13 17
v 39 13 14
v 39 13 1
v 39 13 -1
v 39 13 -14
v 39 13 -17
v 39 18 1
v 39 18 -1
v 39 19 1
v 39 19 -1
v 39 20 1
v 39 20 -1
v 40 0 20
v 40 0 -20
v 40 1 20
v 40 1 -20
v 40 10 14
v 40 10 -14
v 40 13 14
v 40 13 -14
v -40 0 20
v -40 1 20
v 40 0 20
v 40 1 20
v -35 10 19
v -35 13 19
v 35 10 19
v 35 13 19
v -38 10 18
v -38 13 18
v -35 1 18
v -35 10 18
v -35 13 18
v 35 1 18
v 35 10 18
v 35 13 18
v 38 10 18
v 38 13 18
v -39 10 17
v -39 13 17
v -38 1 17
v -38 10 17
v -38 13 17
v -35 1 17
v -35 10 17
v 35 1 17
v 35 10 17
v 38 1 17
v 38 10 17
v 38 13 17
v 39 10 17
v 39 13 17
v -40 10 14
v -40 13 14
v -39 1 14
v -39 10 14
v -39 13 14
v -38 1 14
v -38 10 14
v 38 1 14
v 38 10 14
v 39 1 14
v 39 10 14
v 39 13 14
v 40 10 14
v 40 13 14
v 30 13 2
v 30 15 2
v 34 13 2
v 34 15 2
v 36 19 2
v 36 20 2
v 38 19 2
v 38 20 2
v 31 15 1
v 31 18 1
v 33 15 1
v 33 16 1
v 35 19 1
v 35 20 1
v 36 18 1
v 36 19 1
v 36 20 1
v 36 21 1
v 37 13 1
v 37 16 1
v 38 18 1
v 38 19 1
v 38 20 1
v 38 21 1
v 39 13 1
v 39 18 1
v 39 19 1
v 39 20 1
v 31 13 -1
v 31 14 -1
v 33 13 -1
v 33 14 -1
v -36 8 -14
v -36 13 -14
v 36 8 -14
v 36 13 -14
v -36 8 14
v -36 13 14
v 36 8 14
v 36 13 14
v 31 13 1
v 31 14 1
v 33 13 1
v 33 14 1
v 31 15 -1
v 31 18 -1
v 33 15 -1
v 33 16 -1
v 35 19 -1
v 35 20 -1
v 36 18 -1
v 36 19 -1
v 36 20 -1
v 36 21 -1
v 37 13 -1
v 37 16 -1
v 38 18 -1
v 38 19 -1
v 38 20 -1
v 38 21 -1
v 39 13 -1
v 39 18 -1
v 39 19 -1
v 39 20 -1
v 30 13 -2
v 30 15 -2
v 34 13 -2
v 34 15 -2
v 36 19 -2
v 36 20 -2
v 38 19 -2
v 38 20 -2
v -40 10 -14
v -40 13 -14
v -39 1 -14
v -39 10 -14
v -39 13 -14
v -38 1 -14
v -38 10 -14
v 38 1 -14
v 38 10 -14
v 39 1 -14
v 39 10 -14
v 39 13 -14
v 40 10 -14
v 40 13 -14
v -39 10 -17
v -39 13 -17
v -38 1 -17
v -38 10 -17
v -38 13 -17
v -35 1 -17
v -35 10 -17
v 35 1 -17
v 35 10 -17
v 38 1 -17
v 38 10 -17
v 38 13 -17
v 39 10 -17
v 39 13 -17
v -38 10 -18
v -38 13 -18
v -35 1 -18
v -35 10 -18
v -35 13 -18
v 35 1 -18
v 35 10 -18
v 35 13 -18
v 38 10 -18
v 38 13 -18
v -35 10 -19
v -35 13 -19
v 35 10 -19
v 35 13 -19
v -40 0 -20
v -40 1 -20
v 40 0 -20
v 40 1 -20
v -40 0 20
v 40 0 20
v -40 0 -20
v 40 0 -20
v -35 10 19
v 35 10 19
v -38 10 18
v -35 10 18
v 35 10 18
v 38 10 18
v -39 10 17
v -38 10 17
v -35 10 17
v 35 10 17
v 38 10 17
v 39 10 17
v -40 10 14
v -39 10 14
v -38 10 14
v 38 10 14
v 39 10 14
v 40 10 14
v -40 10 -14
v -39 10 -14
v -38 10 -14
v 38 10 -14
v 39 10 -14
v 40 10 -14
v -39 10 -17
v -38 10 -17
v -35 10 -17
v 35 10 -17
v 38 10 -17
v 39 10 -17
v -38 10 -18
v -35 10 -18
v 35 10 -18
v 38 10 -18
v -35 10 -19
v 35 10 -19
v 30 13 2
v 34 13 2
v 31 13 1
v 33 13 1
v 31 13 -1
v 33 13 -1
v 30 13 -2
v 34 13 -2
v 31 14 1
v 33 14 1
v 31 14 -1
v 33 14 -1
v 33 16 1
v 37 16 1
v 33 16 -1
v 37 16 -1
v 36 19 2
v 38 19 2
v 35 19 1
v 36 19 1
v 38 19 1
v 39 19 1
v 35 19 -1
v 36 19 -1
v 38 19 -1
v 39 19 -1
v 36 19 -2
v 38 19 -2
v -40 1 20
v 40 1 20
v -35 1 18
v 35 1 18
v -38 1 17
v -35 1 17
v 35 1 17
v 38 1 17
v -39 1 14
v -38 1 14
v 38 1 14
v 39 1 14
v -39 1 -14
v -38 1 -14
v 38 1 -14
v 39 1 -14
v -38 1 -17
v -35 1 -17
v 35 1 -17
v 38 1 -17
v -35 1 -18
v 35 1 -18
v -40 1 -20
v 40 1 -20
v -36 8 14
v 36 8 14
v -36 8 -14
v 36 8 -14
v -35 13 19
v 35 13 19
v -38 13 18
v -35 13 18
v 35 13 18
v 38 13 18
v -39 13 17
v -38 13 17
v 38 13 17
v 39 13 17
v -40 13 14
v -39 13 14
v -36 13 14
v 36 13 14
v 39 13 14
v 40 13 14
v 37 13 1
v 39 13 1
v 37 13 -1
v 39 13 -1
v -40 13 -14
v -39 13 -14
v -36 13 -14
v 36 13 -14
v 39 13 -14
v 40 13 -14
v -39 13 -17
v -38 13 -17
v 38 13 -17
v 39 13 -17
v -38 13 -18
v -35 13 -18
v 35 13 -18
v 38 13 -18
v -35 13 -19
v 35 13 -19
v 30 15 2
v 34 15 2
v 31 15 1
v 33 15 1
v 31 15 -1
v 33 15 -1
v 30 15 -2
v 34 15 -2
v 31 18 1
v 36 18 1
v 38 18 1
v 39 18 1
v 31 18 -1
v 36 18 -1
v 38 18 -1
v 39 18 -1
v 36 20 2
v 38 20 2
v 35 20 1
v 36 20 1
v 38 20 1
v 39 20 1
v 35 20 -1
v 36 20 -1
v 38 20 -1
v 39 20 -1
v 36 20 -2
v 38 20 -2
v 36 21 1
v 38 21 1
v 36 21 -1
v 38 21 -1

# faces
f 3/2/1 2/2/1 1/2/1
f 4/2/1 2/2/1 3/2/1
f 7/2/1 6/2/1 5/2/1
f 8/2/1 6/2/1 7/2/1
f 12/2/1 10/2/1 9/2/1
f 13/2/1 10/2/1 12/2/1
f 15/2/1 12/2/1 11/2/1
f 16/2/1 12/2/1 15/2/1
f 17/2/1 14/2/1 13/2/1
f 18/2/1 14/2/1 17/2/1
f 24/2/1 20/2/1 19/2/1
f 25/2/1 20/2/1 24/2/1
f 26/2/1 22/2/1 21/2/1
f 27/2/1 22/2/1 26/2/1
f 29/2/1 24/2/1 23/2/1
f 30/2/1 24/2/1 29/2/1
f 31/2/1 28/2/1 27/2/1
f 32/2/1 28/2/1 31/2/1
f 38/2/1 34/2/1 33/2/1
f 39/2/1 34/2/1 38/2/1
f 40/2/1 36/2/1 35/2/1
f 41/2/1 36/2/1 40/2/1
f 43/2/1 38/2/1 37/2/1
f 44/2/1 38/2/1 43/2/1
f 45/2/1 42/2/1 41/2/1
f 46/2/1 42/2/1 45/2/1
f 49/3/1 48/3/1 47/3/1
f 50/3/1 48/3/1 49/3/1
f 53/3/1 52/3/1 51/3/1
f 54/3/1 52/3/1 53/3/1
f 57/3/1 56/3/1 55/3/1
f 58/3/1 56/3/1 57/3/1
f 61/4/1 60/4/1 59/4/1
f 62/4/1 60/4/1 61/4/1
f 65/2/1 64/2/1 63/2/1
f 66/2/1 64/2/1 65/2/1
f 70/3/1 68/3/1 67/3/1
f 71/3/1 68/3/1 70/3/1
f 73/4/1 70/4/1 69/4/1
f 74/4/1 70/4/1 73/4/1
f 75/4/1 72/4/1 71/4/1
f 76/4/1 72/4/1 75/4/1
f 77/4/1 75/4/1 74/4/1
f 78/4/1 75/4/1 77/4/1
f 81/3/1 80/3/1 79/3/1
f 82/3/1 80/3/1 81/3/1
f 83/2/2 84/2/2 85/2/2
f 85/2/2 84/2/2 86/2/2
f 87/3/2 88/3/2 89/3/2
f 89/3/2 88/3/2 90/3/2
f 91/3/2 92/3/2 93/3/2
f 93/3/2 92/3/2 94/3/2
f 95/3/2 96/3/2 97/3/2
f 97/3/2 96/3/2 98/3/2
f 99/2/2 100/2/2 104/2/2
f 104/2/2 100/2/2 105/2/2
f 101/2/2 102/2/2 106/2/2
f 106/2/2 102/2/2 107/2/2
f 103/2/2 104/2/2 109/2/2
f 109/2/2 104/2/2 110/2/2
f 107/2/2 108/2/2 111/2/2
f 111/2/2 108/2/2 112/2/2
f 113/2/2 114/2/2 118/2/2
f 118/2/2 114/2/2 119/2/2
f 115/2/2 116/2/2 120/2/2
f 120/2/2 116/2/2 121/2/2
f 117/2/2 118/2/2 123/2/2
f 123/2/2 118/2/2 124/2/2
f 121/2/2 122/2/2 125/2/2
f 125/2/2 122/2/2 126/2/2
f 127/3/2 128/3/2 130/3/2
f 130/3/2 128/3/2 131/3/2
f 129/4/2 130/4/2 133/4/2
f 133/4/2 130/4/2 134/4/2
f 131/4/2 132/4/2 135/4/2
f 135/4/2 132/4/2 136/4/2
f 134/4/2 135/4/2 137/4/2
f 137/4/2 135/4/2 138/4/2
f 139/2/2 140/2/2 142/2/2
f 142/2/2 140/2/2 143/2/2
f 141/2/2 142/2/2 145/2/2
f 145/2/2 142/2/2 146/2/2
f 143/2/2 144/2/2 149/2/2
f 149/2/2 144/2/2 150/2/2
f 147/3/2 148/3/2 151/3/2
f 151/3/2 148/3/2 152/3/2
f 153/4/2 154/4/2 155/4/2
f 155/4/2 154/4/2 156/4/2
f 157/2/2 158/2/2 159/2/2
f 159/2/2 158/2/2 160/2/2
f 161/2/2 162/2/2 163/2/2
f 163/2/2 162/2/2 164/2/2
f 167/2/3 166/2/3 165/2/3
f 168/2/3 166/2/3 167/2/3
f 171/2/3 170/2/3 169/2/3
f 172/2/3 170/2/3 171/2/3
f 176/2/3 174/2/3 173/2/3
f 177/2/3 174/2/3 176/2/3
f 178/2/3 176/2/3 175/2/3
f 179/2/3 176/2/3 178/2/3
f 181/2/3 180/2/3 179/2/3
f 182/2/3 180/2/3 181/2/3
f 186/2/3 184/2/3 183/2/3
f 187/2/3 184/2/3 186/2/3
f 188/2/3 186/2/3 185/2/3
f 189/2/3 186/2/3 188/2/3
f 192/2/3 191/2/3 190/2/3
f 193/2/3 191/2/3 192/2/3
f 195/2/3 194/2/3 193/2/3
f 196/2/3 194/2/3 195/2/3
f 200/2/3 198/2/3 197/2/3
f 201/2/3 198/2/3 200/2/3
f 202/2/3 200/2/3 199/2/3
f 203/2/3 200/2/3 202/2/3
f 206/2/3 205/2/3 204/2/3
f 207/2/3 205/2/3 206/2/3
f 209/2/3 208/2/3 207/2/3
f 210/2/3 208/2/3 209/2/3
f 213/3/3 212/3/3 211/3/3
f 214/3/3 212/3/3 213/3/3
f 217/4/3 216/4/3 215/4/3
f 218/4/3 216/4/3 217/4/3
f 221/3/3 220/3/3 219/3/3
f 222/3/3 220/3/3 221/3/3
f 225/3/3 220/3/3 222/3/3
f 226/4/3 224/4/3 223/4/3
f 227/4/3 224/4/3 226/4/3
f 230/3/3 225/3/3 222/3/3
f 230/3/3 226/3/3 225/3/3
f 231/3/3 226/3/3 230/3/3
f 231/3/3 230/3/3 229/3/3
f 232/3/3 226/3/3 231/3/3
f 233/4/3 228/4/3 227/4/3
f 234/4/3 228/4/3 233/4/3
f 235/3/3 231/3/3 229/3/3
f 236/3/3 231/3/3 235/3/3
f 237/4/3 233/4/3 232/4/3
f 238/4/3 233/4/3 237/4/3
f 241/3/3 240/3/3 239/3/3
f 242/3/3 240/3/3 241/3/3
f 245/2/3 244/2/3 243/2/3
f 246/2/3 244/2/3 245/2/3
f 247/2/4 248/2/4 249/2/4
f 249/2/4 248/2/4 250/2/4
f 251/3/4 252/3/4 253/3/4
f 253/3/4 252/3/4 254/3/4
f 255/3/4 256/3/4 257/3/4
f 257/3/4 256/3/4 258/3/4
f 258/3/4 256/3/4 261/3/4
f 259/4/4 260/4/4 262/4/4
f 262/4/4 260/4/4 263/4/4
f 258/3/4 261/3/4 266/3/4
f 261/3/4 262/3/4 266/3/4
f 266/3/4 262/3/4 267/3/4
f 265/3/4 266/3/4 267/3/4
f 267/3/4 262/3/4 268/3/4
f 263/4/4 264/4/4 269/4/4
f 269/4/4 264/4/4 270/4/4
f 265/3/4 267/3/4 271/3/4
f 271/3/4 267/3/4 272/3/4
f 268/4/4 269/4/4 273/4/4
f 273/4/4 269/4/4 274/4/4
f 275/3/4 276/3/4 277/3/4
f 277/3/4 276/3/4 278/3/4
f 279/4/4 280/4/4 281/4/4
f 281/4/4 280/4/4 282/4/4
f 283/2/4 284/2/4 286/2/4
f 286/2/4 284/2/4 287/2/4
f 285/2/4 286/2/4 288/2/4
f 288/2/4 286/2/4 289/2/4
f 290/2/4 291/2/4 292/2/4
f 292/2/4 291/2/4 293/2/4
f 293/2/4 294/2/4 295/2/4
f 295/2/4 294/2/4 296/2/4
f 297/2/4 298/2/4 300/2/4
f 300/2/4 298/2/4 301/2/4
f 299/2/4 300/2/4 302/2/4
f 302/2/4 300/2/4 303/2/4
f 304/2/4 305/2/4 306/2/4
f 306/2/4 305/2/4 307/2/4
f 307/2/4 308/2/4 309/2/4
f 309/2/4 308/2/4 310/2/4
f 311/2/4 312/2/4 314/2/4
f 314/2/4 312/2/4 315/2/4
f 313/2/4 314/2/4 316/2/4
f 316/2/4 314/2/4 317/2/4
f 317/2/4 318/2/4 319/2/4
f 319/2/4 318/2/4 320/2/4
f 321/2/4 322/2/4 323/2/4
f 323/2/4 322/2/4 324/2/4
f 325/2/4 326/2/4 327/2/4
f 327/2/4 326/2/4 328/2/4
f 331/2/5 330/2/5 329/2/5
f 332/2/5 330/2/5 331/2/5
f 336/2/5 334/2/5 333/2/5
f 337/2/5 334/2/5 336/2/5
f 340/2/5 336/2/5 335/2/5
f 341/2/5 336/2/5 340/2/5
f 342/2/5 338/2/5 337/2/5
f 343/2/5 338/2/5 342/2/5
f 346/2/5 340/2/5 339/2/5
f 347/2/5 340/2/5 346/2/5
f 348/2/5 344/2/5 343/2/5
f 349/2/5 344/2/5 348/2/5
f 351/2/5 346/2/5 345/2/5
f 352/2/5 346/2/5 351/2/5
f 355/2/5 350/2/5 349/2/5
f 356/2/5 350/2/5 355/2/5
f 357/2/5 353/2/5 352/2/5
f 358/2/5 353/2/5 357/2/5
f 361/2/5 355/2/5 354/2/5
f 362/2/5 355/2/5 361/2/5
f 363/2/5 359/2/5 358/2/5
f 364/2/5 359/2/5 363/2/5
f 365/2/5 361/2/5 360/2/5
f 366/2/5 361/2/5 365/2/5
f 367/2/5 365/2/5 364/2/5
f 368/2/5 365/2/5 367/2/5
f 371/3/5 370/3/5 369/3/5
f 372/3/5 370/3/5 371/3/5
f 373/3/5 371/3/5 369/3/5
f 374/3/5 370/3/5 372/3/5
f 375/3/5 373/3/5 369/3/5
f 375/3/5 374/3/5 373/3/5
f 376/3/5 370/3/5 374/3/5
f 376/3/5 374/3/5 375/3/5
f 379/3/5 378/3/5 377/3/5
f 380/3/5 378/3/5 379/3/5
f 383/3/5 382/3/5 381/3/5
f 384/3/5 382/3/5 383/3/5
f 388/4/5 386/4/5 385/4/5
f 389/4/5 386/4/5 388/4/5
f 391/4/5 388/4/5 387/4/5
f 392/4/5 388/4/5 391/4/5
f 393/4/5 390/4/5 389/4/5
f 394/4/5 390/4/5 393/4/5
f 395/4/5 393/4/5 392/4/5
f 396/4/5 393/4/5 395/4/5
f 397/2/6 398/2/6 399/2/6
f 399/2/6 398/2/6 400/2/6
f 397/2/6 399/2/6 401/2/6
f 401/2/6 399/2/6 402/2/6
f 400/2/6 398/2/6 403/2/6
f 403/2/6 398/2/6 404/2/6
f 397/2/6 401/2/6 405/2/6
f 405/2/6 401/2/6 406/2/6
f 404/2/6 398/2/6 407/2/6
f 407/2/6 398/2/6 408/2/6
f 397/2/6 405/2/6 409/2/6
f 408/2/6 398/2/6 412/2/6
f 409/2/6 410/2/6 413/2/6
f 411/2/6 412/2/6 416/2/6
f 413/2/6 414/2/6 417/2/6
f 415/2/6 416/2/6 418/2/6
f 413/2/6 417/2/6 419/2/6
f 417/2/6 418/2/6 419/2/6
f 397/2/6 409/2/6 419/2/6
f 409/2/6 413/2/6 419/2/6
f 418/2/6 416/2/6 420/2/6
f 419/2/6 418/2/6 420/2/6
f 412/2/6 398/2/6 420/2/6
f 416/2/6 412/2/6 420/2/6
f 421/1/6 422/1/6 423/1/6
f 423/1/6 422/1/6 424/1/6
f 425/2/6 426/2/6 428/2/6
f 428/2/6 426/2/6 429/2/6
f 427/2/6 428/2/6 432/2/6
f 429/2/6 430/2/6 432/2/6
f 428/2/6 429/2/6 432/2/6
f 432/2/6 430/2/6 433/2/6
f 431/2/6 432/2/6 436/2/6
f 433/2/6 434/2/6 436/2/6
f 432/2/6 433/2/6 436/2/6
f 436/2/6 434/2/6 437/2/6
f 437/2/6 434/2/6 438/2/6
f 438/2/6 434/2/6 439/2/6
f 439/2/6 440/2/6 441/2/6
f 438/2/6 439/2/6 441/2/6
f 441/2/6 440/2/6 442/2/6
f 438/2/6 441/2/6 443/2/6
f 442/2/6 440/2/6 444/2/6
f 435/2/6 436/2/6 445/2/6
f 436/2/6 437/2/6 445/2/6
f 445/2/6 437/2/6 446/2/6
f 446/2/6 437/2/6 447/2/6
f 443/2/6 444/2/6 448/2/6
f 438/2/6 443/2/6 448/2/6
f 444/2/6 440/2/6 449/2/6
f 448/2/6 444/2/6 449/2/6
f 449/2/6 440/2/6 450/2/6
f 446/2/6 447/2/6 451/2/6
f 447/2/6 448/2/6 451/2/6
f 448/2/6 449/2/6 451/2/6
f 451/2/6 449/2/6 452/2/6
f 452/2/6 449/2/6 453/2/6
f 453/2/6 449/2/6 454/2/6
f 452/2/6 453/2/6 455/2/6
f 455/2/6 453/2/6 456/2/6
f 456/2/6 453/2/6 457/2/6
f 457/2/6 453/2/6 458/2/6
f 456/2/6 457/2/6 459/2/6
f 459/2/6 457/2/6 460/2/6
f 461/3/6 462/3/6 463/3/6
f 463/3/6 462/3/6 464/3/6
f 461/3/6 463/3/6 465/3/6
f 464/3/6 462/3/6 466/3/6
f 461/3/6 465/3/6 467/3/6
f 465/3/6 466/3/6 467/3/6
f 466/3/6 462/3/6 468/3/6
f 467/3/6 466/3/6 468/3/6
f 469/3/6 470/3/6 473/3/6
f 473/3/6 470/3/6 474/3/6
f 471/3/6 472/3/6 475/3/6
f 475/3/6 472/3/6 476/3/6
f 477/4/6 478/4/6 480/4/6
f 480/4/6 478/4/6 481/4/6
f 479/4/6 480/4/6 483/4/6
f 483/4/6 480/4/6 484/4/6
f 481/4/6 482/4/6 485/4/6
f 485/4/6 482/4/6 486/4/6
f 484/4/6 485/4/6 487/4/6
f 487/4/6 485/4/6 488/4/6
f 489/4/6 490/4/6 491/4/6
f 491/4/6 490/4/6 492/4/6
