# MagicaVoxel @ Ephtracy

# group
g wall_with_door

# material
mtllib wall_with_door.mtl
usemtl palette

# normals
vn -1 0 0
vn 1 0 0
vn 0 0 1
vn 0 0 -1
vn 0 -1 0
vn 0 1 0

# texcoords
vt 0.0175781 0.5
vt 0.0214844 0.5
vt 0.0292969 0.5
vt 0.0332031 0.5
vt 0.0800781 0.5
vt 0.0839844 0.5

# verts
v -10 0 17
v -10 0 -17
v -10 1 19
v -10 1 17
v -10 1 -17
v -10 1 -20
v -10 2 17
v -10 2 -17
v -10 12 19
v -10 12 17
v -10 12 -17
v -10 12 -20
v -10 13 19
v -10 13 17
v -10 13 -17
v -10 13 -20
v -10 24 19
v -10 24 17
v -10 24 -17
v -10 24 -20
v -10 25 20
v -10 25 17
v -10 25 -17
v -10 25 -20
v -10 27 20
v -10 27 17
v -10 27 -17
v -10 27 -20
v -9 0 20
v -9 0 17
v -9 0 -17
v -9 0 -20
v -9 1 19
v -9 1 17
v -9 1 -17
v -9 1 -20
v -9 12 19
v -9 12 17
v -9 12 -17
v -9 12 -20
v -9 13 19
v -9 13 17
v -9 13 -17
v -9 13 -20
v -9 24 19
v -9 24 17
v -9 24 -17
v -9 24 -20
v -9 25 20
v -9 25 17
v -9 25 -17
v -9 25 -20
v -9 27 20
v -9 27 17
v -9 27 -17
v -9 27 -20
v -9 80 20
v -9 80 17
v -9 80 -17
v -9 80 -20
v -7 4 15
v -7 4 1
v -7 4 -1
v -7 4 -15
v -7 34 15
v -7 34 1
v -7 34 -1
v -7 34 -15
v -7 39 15
v -7 39 1
v -7 39 -1
v -7 39 -15
v -7 78 15
v -7 78 1
v -7 78 -1
v -7 78 -15
v -7 79 17
v -7 79 -17
v -7 80 17
v -7 80 -17
v -6 2 17
v -6 2 -17
v -6 4 15
v -6 4 1
v -6 4 -1
v -6 4 -15
v -6 34 15
v -6 34 1
v -6 34 -1
v -6 34 -15
v -6 39 15
v -6 39 1
v -6 39 -1
v -6 39 -15
v -6 78 15
v -6 78 1
v -6 78 -1
v -6 78 -15
v -6 79 17
v -6 79 -17
v 4 2 17
v 4 2 -17
v 4 79 17
v 4 79 -17
v 8 35 8
v 8 35 6
v 8 36 12
v 8 36 8
v 8 37 8
v 8 37 6
v 8 38 12
v 8 38 8
v -4 2 17
v -4 2 -17
v -4 79 17
v -4 79 -17
v 6 2 17
v 6 2 -17
v 6 4 15
v 6 4 1
v 6 4 -1
v 6 4 -15
v 6 34 15
v 6 34 1
v 6 34 -1
v 6 34 -15
v 6 35 15
v 6 35 12
v 6 38 15
v 6 38 12
v 6 39 15
v 6 39 1
v 6 39 -1
v 6 39 -15
v 6 78 15
v 6 78 1
v 6 78 -1
v 6 78 -15
v 6 79 17
v 6 79 -17
v 7 4 15
v 7 4 1
v 7 4 -1
v 7 4 -15
v 7 34 15
v 7 34 1
v 7 34 -1
v 7 34 -15
v 7 39 15
v 7 39 1
v 7 39 -1
v 7 39 -15
v 7 78 15
v 7 78 1
v 7 78 -1
v 7 78 -15
v 7 79 17
v 7 79 -17
v 7 80 17
v 7 80 -17
v 9 0 20
v 9 0 17
v 9 0 -17
v 9 0 -20
v 9 1 19
v 9 1 17
v 9 1 -17
v 9 1 -20
v 9 12 19
v 9 12 17
v 9 12 -17
v 9 12 -20
v 9 13 19
v 9 13 17
v 9 13 -17
v 9 13 -20
v 9 24 19
v 9 24 17
v 9 24 -17
v 9 24 -20
v 9 25 20
v 9 25 17
v 9 25 -17
v 9 25 -20
v 9 27 20
v 9 27 17
v 9 27 -17
v 9 27 -20
v 9 35 15
v 9 35 12
v 9 35 8
v 9 35 6
v 9 36 12
v 9 36 8
v 9 37 8
v 9 37 6
v 9 38 15
v 9 38 8
v 9 80 20
v 9 80 17
v 9 80 -17
v 9 80 -20
v 10 0 17
v 10 0 -17
v 10 1 19
v 10 1 17
v 10 1 -17
v 10 1 -20
v 10 2 17
v 10 2 -17
v 10 12 19
v 10 12 17
v 10 12 -17
v 10 12 -20
v 10 13 19
v 10 13 17
v 10 13 -17
v 10 13 -20
v 10 24 19
v 10 24 17
v 10 24 -17
v 10 24 -20
v 10 25 20
v 10 25 17
v 10 25 -17
v 10 25 -20
v 10 27 20
v 10 27 17
v 10 27 -17
v 10 27 -20
v -10 25 20
v -10 27 20
v -9 0 20
v -9 25 20
v -9 27 20
v -9 80 20
v 9 0 20
v 9 25 20
v 9 27 20
v 9 80 20
v 10 25 20
v 10 27 20
v -10 1 19
v -10 12 19
v -10 13 19
v -10 24 19
v -9 1 19
v -9 12 19
v -9 13 19
v -9 24 19
v 9 1 19
v 9 12 19
v 9 13 19
v 9 24 19
v 10 1 19
v 10 12 19
v 10 13 19
v 10 24 19
v -10 0 17
v -10 1 17
v -9 0 17
v -9 1 17
v 9 0 17
v 9 1 17
v 10 0 17
v 10 1 17
v -7 4 15
v -7 34 15
v -7 39 15
v -7 78 15
v -6 4 15
v -6 34 15
v -6 39 15
v -6 78 15
v 6 4 15
v 6 34 15
v 6 35 15
v 6 38 15
v 6 39 15
v 6 78 15
v 7 4 15
v 7 34 15
v 7 39 15
v 7 78 15
v 9 35 15
v 9 38 15
v 8 35 8
v 8 36 8
v 9 35 8
v 9 36 8
v -7 4 -1
v -7 34 -1
v -7 39 -1
v -7 78 -1
v -6 4 -1
v -6 34 -1
v -6 39 -1
v -6 78 -1
v 6 4 -1
v 6 34 -1
v 6 39 -1
v 6 78 -1
v 7 4 -1
v 7 34 -1
v 7 39 -1
v 7 78 -1
v -10 2 -17
v -10 12 -17
v -10 13 -17
v -10 24 -17
v -10 25 -17
v -10 27 -17
v -9 2 -17
v -9 12 -17
v -9 13 -17
v -9 24 -17
v -9 25 -17
v -9 27 -17
v -9 80 -17
v -7 79 -17
v -7 80 -17
v -6 2 -17
v -6 79 -17
v -4 2 -17
v -4 79 -17
v 4 2 -17
v 4 79 -17
v 6 2 -17
v 6 79 -17
v 7 79 -17
v 7 80 -17
v 9 2 -17
v 9 12 -17
v 9 13 -17
v 9 24 -17
v 9 25 -17
v 9 27 -17
v 9 80 -17
v 10 2 -17
v 10 12 -17
v 10 13 -17
v 10 24 -17
v 10 25 -17
v 10 27 -17
v -10 2 17
v -10 12 17
v -10 13 17
v -10 24 17
v -10 25 17
v -10 27 17
v -9 2 17
v -9 12 17
v -9 13 17
v -9 24 17
v -9 25 17
v -9 27 17
v -9 80 17
v -7 79 17
v -7 80 17
v -6 2 17
v -6 79 17
v -4 2 17
v -4 79 17
v 4 2 17
v 4 79 17
v 6 2 17
v 6 79 17
v 7 79 17
v 7 80 17
v 9 2 17
v 9 12 17
v 9 13 17
v 9 24 17
v 9 25 17
v 9 27 17
v 9 80 17
v 10 2 17
v 10 12 17
v 10 13 17
v 10 24 17
v 10 25 17
v 10 27 17
v 6 35 12
v 6 38 12
v 8 36 12
v 8 38 12
v 9 35 12
v 9 36 12
v 8 37 8
v 8 38 8
v 9 37 8
v 9 38 8
v 8 35 6
v 8 37 6
v 9 35 6
v 9 37 6
v -7 4 1
v -7 34 1
v -7 39 1
v -7 78 1
v -6 4 1
v -6 34 1
v -6 39 1
v -6 78 1
v 6 4 1
v 6 34 1
v 6 39 1
v 6 78 1
v 7 4 1
v 7 34 1
v 7 39 1
v 7 78 1
v -7 4 -15
v -7 34 -15
v -7 39 -15
v -7 78 -15
v -6 4 -15
v -6 34 -15
v -6 39 -15
v -6 78 -15
v 6 4 -15
v 6 34 -15
v 6 39 -15
v 6 78 -15
v 7 4 -15
v 7 34 -15
v 7 39 -15
v 7 78 -15
v -10 0 -17
v -10 1 -17
v -9 0 -17
v -9 1 -17
v 9 0 -17
v 9 1 -17
v 10 0 -17
v 10 1 -17
v -10 1 -20
v -10 12 -20
v -10 13 -20
v -10 24 -20
v -10 25 -20
v -10 27 -20
v -9 0 -20
v -9 1 -20
v -9 12 -20
v -9 13 -20
v -9 24 -20
v -9 25 -20
v -9 27 -20
v -9 80 -20
v 9 0 -20
v 9 1 -20
v 9 12 -20
v 9 13 -20
v 9 24 -20
v 9 25 -20
v 9 27 -20
v 9 80 -20
v 10 1 -20
v 10 12 -20
v 10 13 -20
v 10 24 -20
v 10 25 -20
v 10 27 -20
v -9 0 20
v 9 0 20
v -10 0 17
v -9 0 17
v 9 0 17
v 10 0 17
v -10 0 -17
v -9 0 -17
v 9 0 -17
v 10 0 -17
v -9 0 -20
v 9 0 -20
v -10 1 19
v -9 1 19
v 9 1 19
v 10 1 19
v -10 1 17
v -9 1 17
v 9 1 17
v 10 1 17
v -10 1 -17
v -9 1 -17
v 9 1 -17
v 10 1 -17
v -10 1 -20
v -9 1 -20
v 9 1 -20
v 10 1 -20
v -7 4 15
v -6 4 15
v 6 4 15
v 7 4 15
v -7 4 1
v -6 4 1
v 6 4 1
v 7 4 1
v -7 4 -1
v -6 4 -1
v 6 4 -1
v 7 4 -1
v -7 4 -15
v -6 4 -15
v 6 4 -15
v 7 4 -15
v -10 13 19
v -9 13 19
v 9 13 19
v 10 13 19
v -10 13 17
v -9 13 17
v 9 13 17
v 10 13 17
v -10 13 -17
v -9 13 -17
v 9 13 -17
v 10 13 -17
v -10 13 -20
v -9 13 -20
v 9 13 -20
v 10 13 -20
v -10 25 20
v -9 25 20
v 9 25 20
v 10 25 20
v -10 25 17
v -9 25 17
v 9 25 17
v 10 25 17
v -10 25 -17
v -9 25 -17
v 9 25 -17
v 10 25 -17
v -10 25 -20
v -9 25 -20
v 9 25 -20
v 10 25 -20
v 6 35 15
v 9 35 15
v 6 35 12
v 9 35 12
v 8 35 8
v 9 35 8
v 8 35 6
v 9 35 6
v 8 36 12
v 9 36 12
v 8 36 8
v 9 36 8
v -7 39 15
v -6 39 15
v 6 39 15
v 7 39 15
v -7 39 1
v -6 39 1
v 6 39 1
v 7 39 1
v -7 39 -1
v -6 39 -1
v 6 39 -1
v 7 39 -1
v -7 39 -15
v -6 39 -15
v 6 39 -15
v 7 39 -15
v -7 79 17
v -6 79 17
v -4 79 17
v 4 79 17
v 6 79 17
v 7 79 17
v -7 79 -17
v -6 79 -17
v -4 79 -17
v 4 79 -17
v 6 79 -17
v 7 79 -17
v -10 2 17
v -9 2 17
v -6 2 17
v -4 2 17
v 4 2 17
v 6 2 17
v 9 2 17
v 10 2 17
v -10 2 -17
v -9 2 -17
v -6 2 -17
v -4 2 -17
v 4 2 -17
v 6 2 -17
v 9 2 -17
v 10 2 -17
v -10 12 19
v -9 12 19
v 9 12 19
v 10 12 19
v -10 12 17
v -9 12 17
v 9 12 17
v 10 12 17
v -10 12 -17
v -9 12 -17
v 9 12 -17
v 10 12 -17
v -10 12 -20
v -9 12 -20
v 9 12 -20
v 10 12 -20
v -10 24 19
v -9 24 19
v 9 24 19
v 10 24 19
v -10 24 17
v -9 24 17
v 9 24 17
v 10 24 17
v -10 24 -17
v -9 24 -17
v 9 24 -17
v 10 24 -17
v -10 24 -20
v -9 24 -20
v 9 24 -20
v 10 24 -20
v -10 27 20
v -9 27 20
v 9 27 20
v 10 27 20
v -10 27 17
v -9 27 17
v 9 27 17
v 10 27 17
v -10 27 -17
v -9 27 -17
v 9 27 -17
v 10 27 -17
v -10 27 -20
v -9 27 -20
v 9 27 -20
v 10 27 -20
v -7 34 15
v -6 34 15
v 6 34 15
v 7 34 15
v -7 34 1
v -6 34 1
v 6 34 1
v 7 34 1
v -7 34 -1
v -6 34 -1
v 6 34 -1
v 7 34 -1
v -7 34 -15
v -6 34 -15
v 6 34 -15
v 7 34 -15
v 8 37 8
v 9 37 8
v 8 37 6
v 9 37 6
v 6 38 15
v 9 38 15
v 6 38 12
v 8 38 12
v 8 38 8
v 9 38 8
v -7 78 15
v -6 78 15
v 6 78 15
v 7 78 15
v -7 78 1
v -6 78 1
v 6 78 1
v 7 78 1
v -7 78 -1
v -6 78 -1
v 6 78 -1
v 7 78 -1
v -7 78 -15
v -6 78 -15
v 6 78 -15
v 7 78 -15
v -9 80 20
v 9 80 20
v -9 80 17
v -7 80 17
v 7 80 17
v 9 80 17
v -9 80 -17
v -7 80 -17
v 7 80 -17
v 9 80 -17
v -9 80 -20
v 9 80 -20

# faces
f 4/6/1 2/6/1 1/6/1
f 5/6/1 2/6/1 4/6/1
f 7/6/1 4/6/1 3/6/1
f 7/6/1 6/6/1 5/6/1
f 7/6/1 5/6/1 4/6/1
f 8/6/1 6/6/1 7/6/1
f 9/6/1 7/6/1 3/6/1
f 10/6/1 7/6/1 9/6/1
f 11/6/1 6/6/1 8/6/1
f 12/6/1 6/6/1 11/6/1
f 17/6/1 14/6/1 13/6/1
f 18/6/1 14/6/1 17/6/1
f 19/6/1 16/6/1 15/6/1
f 20/6/1 16/6/1 19/6/1
f 25/6/1 22/6/1 21/6/1
f 26/6/1 22/6/1 25/6/1
f 27/6/1 24/6/1 23/6/1
f 28/6/1 24/6/1 27/6/1
f 33/5/1 30/5/1 29/5/1
f 34/5/1 30/5/1 33/5/1
f 35/5/1 32/5/1 31/5/1
f 36/5/1 32/5/1 35/5/1
f 37/5/1 33/5/1 29/5/1
f 41/5/1 37/5/1 29/5/1
f 41/5/1 38/5/1 37/5/1
f 42/5/1 38/5/1 41/5/1
f 43/5/1 40/5/1 39/5/1
f 44/5/1 40/5/1 43/5/1
f 45/5/1 41/5/1 29/5/1
f 49/5/1 45/5/1 29/5/1
f 49/5/1 46/5/1 45/5/1
f 50/5/1 46/5/1 49/5/1
f 51/5/1 48/5/1 47/5/1
f 52/5/1 48/5/1 51/5/1
f 57/5/1 54/5/1 53/5/1
f 58/5/1 54/5/1 57/5/1
f 59/5/1 56/5/1 55/5/1
f 60/5/1 56/5/1 59/5/1
f 65/1/1 62/1/1 61/1/1
f 66/1/1 62/1/1 65/1/1
f 67/1/1 64/1/1 63/1/1
f 68/1/1 64/1/1 67/1/1
f 73/1/1 70/1/1 69/1/1
f 74/1/1 70/1/1 73/1/1
f 75/1/1 72/1/1 71/1/1
f 76/1/1 72/1/1 75/1/1
f 79/1/1 78/1/1 77/1/1
f 80/1/1 78/1/1 79/1/1
f 83/3/1 82/3/1 81/3/1
f 84/3/1 82/3/1 83/3/1
f 85/3/1 82/3/1 84/3/1
f 86/3/1 82/3/1 85/3/1
f 87/3/1 83/3/1 81/3/1
f 88/3/1 85/3/1 84/3/1
f 89/3/1 85/3/1 88/3/1
f 90/3/1 82/3/1 86/3/1
f 91/3/1 89/3/1 88/3/1
f 91/3/1 90/3/1 89/3/1
f 91/3/1 87/3/1 81/3/1
f 91/3/1 88/3/1 87/3/1
f 92/3/1 90/3/1 91/3/1
f 93/3/1 90/3/1 92/3/1
f 94/3/1 82/3/1 90/3/1
f 94/3/1 90/3/1 93/3/1
f 95/3/1 91/3/1 81/3/1
f 96/3/1 93/3/1 92/3/1
f 97/3/1 93/3/1 96/3/1
f 98/3/1 82/3/1 94/3/1
f 99/3/1 95/3/1 81/3/1
f 99/3/1 98/3/1 97/3/1
f 99/3/1 97/3/1 96/3/1
f 99/3/1 96/3/1 95/3/1
f 100/3/1 82/3/1 98/3/1
f 100/3/1 98/3/1 99/3/1
f 103/3/1 102/3/1 101/3/1
f 104/3/1 102/3/1 103/3/1
f 108/4/1 106/4/1 105/4/1
f 109/4/1 106/4/1 108/4/1
f 109/4/1 108/4/1 107/4/1
f 110/4/1 106/4/1 109/4/1
f 111/4/1 109/4/1 107/4/1
f 112/4/1 109/4/1 111/4/1
f 113/3/2 114/3/2 115/3/2
f 115/3/2 114/3/2 116/3/2
f 117/2/2 118/2/2 119/2/2
f 119/2/2 118/2/2 120/2/2
f 120/2/2 118/2/2 121/2/2
f 121/2/2 118/2/2 122/2/2
f 117/2/2 119/2/2 123/2/2
f 120/2/2 121/2/2 124/2/2
f 124/2/2 121/2/2 125/2/2
f 122/2/2 118/2/2 126/2/2
f 124/2/2 125/2/2 127/2/2
f 125/2/2 126/2/2 127/2/2
f 117/2/2 123/2/2 127/2/2
f 123/2/2 124/2/2 127/2/2
f 127/2/2 126/2/2 128/2/2
f 117/2/2 127/2/2 129/2/2
f 128/2/2 126/2/2 130/2/2
f 117/2/2 129/2/2 131/2/2
f 129/2/2 130/2/2 131/2/2
f 130/2/2 126/2/2 132/2/2
f 131/2/2 130/2/2 132/2/2
f 132/2/2 126/2/2 133/2/2
f 126/2/2 118/2/2 134/2/2
f 133/2/2 126/2/2 134/2/2
f 117/2/2 131/2/2 135/2/2
f 132/2/2 133/2/2 136/2/2
f 136/2/2 133/2/2 137/2/2
f 134/2/2 118/2/2 138/2/2
f 117/2/2 135/2/2 139/2/2
f 137/2/2 138/2/2 139/2/2
f 136/2/2 137/2/2 139/2/2
f 135/2/2 136/2/2 139/2/2
f 138/2/2 118/2/2 140/2/2
f 139/2/2 138/2/2 140/2/2
f 141/1/2 142/1/2 145/1/2
f 145/1/2 142/1/2 146/1/2
f 143/1/2 144/1/2 147/1/2
f 147/1/2 144/1/2 148/1/2
f 149/1/2 150/1/2 153/1/2
f 153/1/2 150/1/2 154/1/2
f 151/1/2 152/1/2 155/1/2
f 155/1/2 152/1/2 156/1/2
f 157/1/2 158/1/2 159/1/2
f 159/1/2 158/1/2 160/1/2
f 161/5/2 162/5/2 165/5/2
f 165/5/2 162/5/2 166/5/2
f 163/5/2 164/5/2 167/5/2
f 167/5/2 164/5/2 168/5/2
f 161/5/2 165/5/2 169/5/2
f 161/5/2 169/5/2 173/5/2
f 169/5/2 170/5/2 173/5/2
f 173/5/2 170/5/2 174/5/2
f 171/5/2 172/5/2 175/5/2
f 175/5/2 172/5/2 176/5/2
f 161/5/2 173/5/2 177/5/2
f 161/5/2 177/5/2 181/5/2
f 177/5/2 178/5/2 181/5/2
f 181/5/2 178/5/2 182/5/2
f 179/5/2 180/5/2 183/5/2
f 183/5/2 180/5/2 184/5/2
f 189/4/2 190/4/2 193/4/2
f 191/4/2 192/4/2 194/4/2
f 194/4/2 192/4/2 195/4/2
f 193/4/2 194/4/2 195/4/2
f 195/4/2 192/4/2 196/4/2
f 189/4/2 193/4/2 197/4/2
f 193/4/2 195/4/2 197/4/2
f 197/4/2 195/4/2 198/4/2
f 185/5/2 186/5/2 199/5/2
f 199/5/2 186/5/2 200/5/2
f 187/5/2 188/5/2 201/5/2
f 201/5/2 188/5/2 202/5/2
f 203/6/2 204/6/2 206/6/2
f 206/6/2 204/6/2 207/6/2
f 205/6/2 206/6/2 209/6/2
f 207/6/2 208/6/2 209/6/2
f 206/6/2 207/6/2 209/6/2
f 209/6/2 208/6/2 210/6/2
f 205/6/2 209/6/2 211/6/2
f 211/6/2 209/6/2 212/6/2
f 210/6/2 208/6/2 213/6/2
f 213/6/2 208/6/2 214/6/2
f 215/6/2 216/6/2 219/6/2
f 219/6/2 216/6/2 220/6/2
f 217/6/2 218/6/2 221/6/2
f 221/6/2 218/6/2 222/6/2
f 223/6/2 224/6/2 227/6/2
f 227/6/2 224/6/2 228/6/2
f 225/6/2 226/6/2 229/6/2
f 229/6/2 226/6/2 230/6/2
f 234/6/3 232/6/3 231/6/3
f 235/6/3 232/6/3 234/6/3
f 237/5/3 234/5/3 233/5/3
f 237/5/3 236/5/3 235/5/3
f 237/5/3 235/5/3 234/5/3
f 238/5/3 236/5/3 237/5/3
f 239/5/3 236/5/3 238/5/3
f 240/5/3 236/5/3 239/5/3
f 241/6/3 239/6/3 238/6/3
f 242/6/3 239/6/3 241/6/3
f 247/6/3 244/6/3 243/6/3
f 248/6/3 244/6/3 247/6/3
f 249/6/3 246/6/3 245/6/3
f 250/6/3 246/6/3 249/6/3
f 255/6/3 252/6/3 251/6/3
f 256/6/3 252/6/3 255/6/3
f 257/6/3 254/6/3 253/6/3
f 258/6/3 254/6/3 257/6/3
f 261/6/3 260/6/3 259/6/3
f 262/6/3 260/6/3 261/6/3
f 265/6/3 264/6/3 263/6/3
f 266/6/3 264/6/3 265/6/3
f 271/1/3 268/1/3 267/1/3
f 272/1/3 268/1/3 271/1/3
f 273/1/3 270/1/3 269/1/3
f 274/1/3 270/1/3 273/1/3
f 281/1/3 276/1/3 275/1/3
f 282/1/3 276/1/3 281/1/3
f 283/1/3 280/1/3 279/1/3
f 284/1/3 280/1/3 283/1/3
f 285/4/3 278/4/3 277/4/3
f 286/4/3 278/4/3 285/4/3
f 289/4/3 288/4/3 287/4/3
f 290/4/3 288/4/3 289/4/3
f 295/1/3 292/1/3 291/1/3
f 296/1/3 292/1/3 295/1/3
f 297/1/3 294/1/3 293/1/3
f 298/1/3 294/1/3 297/1/3
f 303/1/3 300/1/3 299/1/3
f 304/1/3 300/1/3 303/1/3
f 305/1/3 302/1/3 301/1/3
f 306/1/3 302/1/3 305/1/3
f 313/6/3 308/6/3 307/6/3
f 314/6/3 308/6/3 313/6/3
f 315/6/3 310/6/3 309/6/3
f 316/6/3 310/6/3 315/6/3
f 317/6/3 312/6/3 311/6/3
f 318/6/3 312/6/3 317/6/3
f 320/5/3 316/5/3 315/5/3
f 320/5/3 319/5/3 318/5/3
f 320/5/3 318/5/3 317/5/3
f 320/5/3 317/5/3 316/5/3
f 320/5/3 314/5/3 313/5/3
f 320/5/3 315/5/3 314/5/3
f 321/5/3 319/5/3 320/5/3
f 322/5/3 320/5/3 313/5/3
f 323/5/3 320/5/3 322/5/3
f 326/5/3 325/5/3 324/5/3
f 327/5/3 325/5/3 326/5/3
f 330/5/3 329/5/3 328/5/3
f 332/5/3 330/5/3 328/5/3
f 332/5/3 331/5/3 330/5/3
f 333/5/3 331/5/3 332/5/3
f 334/5/3 331/5/3 333/5/3
f 335/5/3 331/5/3 334/5/3
f 336/5/3 331/5/3 335/5/3
f 337/5/3 331/5/3 336/5/3
f 338/5/3 331/5/3 337/5/3
f 339/6/3 333/6/3 332/6/3
f 340/6/3 333/6/3 339/6/3
f 341/6/3 335/6/3 334/6/3
f 342/6/3 335/6/3 341/6/3
f 343/6/3 337/6/3 336/6/3
f 344/6/3 337/6/3 343/6/3
f 345/6/4 346/6/4 351/6/4
f 351/6/4 346/6/4 352/6/4
f 347/6/4 348/6/4 353/6/4
f 353/6/4 348/6/4 354/6/4
f 349/6/4 350/6/4 355/6/4
f 355/6/4 350/6/4 356/6/4
f 353/5/4 354/5/4 358/5/4
f 356/5/4 357/5/4 358/5/4
f 355/5/4 356/5/4 358/5/4
f 354/5/4 355/5/4 358/5/4
f 351/5/4 352/5/4 358/5/4
f 352/5/4 353/5/4 358/5/4
f 358/5/4 357/5/4 359/5/4
f 351/5/4 358/5/4 360/5/4
f 360/5/4 358/5/4 361/5/4
f 362/5/4 363/5/4 364/5/4
f 364/5/4 363/5/4 365/5/4
f 366/5/4 367/5/4 368/5/4
f 366/5/4 368/5/4 370/5/4
f 368/5/4 369/5/4 370/5/4
f 370/5/4 369/5/4 371/5/4
f 371/5/4 369/5/4 372/5/4
f 372/5/4 369/5/4 373/5/4
f 373/5/4 369/5/4 374/5/4
f 374/5/4 369/5/4 375/5/4
f 375/5/4 369/5/4 376/5/4
f 370/6/4 371/6/4 377/6/4
f 377/6/4 371/6/4 378/6/4
f 372/6/4 373/6/4 379/6/4
f 379/6/4 373/6/4 380/6/4
f 374/6/4 375/6/4 381/6/4
f 381/6/4 375/6/4 382/6/4
f 383/4/4 384/4/4 385/4/4
f 385/4/4 384/4/4 386/4/4
f 383/4/4 385/4/4 387/4/4
f 387/4/4 385/4/4 388/4/4
f 389/4/4 390/4/4 391/4/4
f 391/4/4 390/4/4 392/4/4
f 393/4/4 394/4/4 395/4/4
f 395/4/4 394/4/4 396/4/4
f 397/1/4 398/1/4 401/1/4
f 401/1/4 398/1/4 402/1/4
f 399/1/4 400/1/4 403/1/4
f 403/1/4 400/1/4 404/1/4
f 405/1/4 406/1/4 409/1/4
f 409/1/4 406/1/4 410/1/4
f 407/1/4 408/1/4 411/1/4
f 411/1/4 408/1/4 412/1/4
f 413/1/4 414/1/4 417/1/4
f 417/1/4 414/1/4 418/1/4
f 415/1/4 416/1/4 419/1/4
f 419/1/4 416/1/4 420/1/4
f 421/1/4 422/1/4 425/1/4
f 425/1/4 422/1/4 426/1/4
f 423/1/4 424/1/4 427/1/4
f 427/1/4 424/1/4 428/1/4
f 429/6/4 430/6/4 431/6/4
f 431/6/4 430/6/4 432/6/4
f 433/6/4 434/6/4 435/6/4
f 435/6/4 434/6/4 436/6/4
f 437/6/4 438/6/4 444/6/4
f 444/6/4 438/6/4 445/6/4
f 439/6/4 440/6/4 446/6/4
f 446/6/4 440/6/4 447/6/4
f 441/6/4 442/6/4 448/6/4
f 448/6/4 442/6/4 449/6/4
f 446/5/4 447/5/4 451/5/4
f 449/5/4 450/5/4 451/5/4
f 448/5/4 449/5/4 451/5/4
f 447/5/4 448/5/4 451/5/4
f 444/5/4 445/5/4 451/5/4
f 445/5/4 446/5/4 451/5/4
f 443/5/4 444/5/4 451/5/4
f 451/5/4 450/5/4 452/5/4
f 452/5/4 450/5/4 453/5/4
f 453/5/4 450/5/4 454/5/4
f 454/5/4 450/5/4 455/5/4
f 455/5/4 450/5/4 456/5/4
f 456/5/4 450/5/4 457/5/4
f 457/5/4 450/5/4 458/5/4
f 452/6/4 453/6/4 459/6/4
f 459/6/4 453/6/4 460/6/4
f 454/6/4 455/6/4 461/6/4
f 461/6/4 455/6/4 462/6/4
f 456/6/4 457/6/4 463/6/4
f 463/6/4 457/6/4 464/6/4
f 468/5/5 466/5/5 465/5/5
f 469/5/5 466/5/5 468/5/5
f 471/6/5 468/6/5 467/6/5
f 472/5/5 469/5/5 468/5/5
f 472/6/5 468/6/5 471/6/5
f 473/6/5 470/6/5 469/6/5
f 473/5/5 469/5/5 472/5/5
f 474/6/5 470/6/5 473/6/5
f 475/5/5 473/5/5 472/5/5
f 476/5/5 473/5/5 475/5/5
f 481/6/5 478/6/5 477/6/5
f 482/6/5 478/6/5 481/6/5
f 483/6/5 480/6/5 479/6/5
f 484/6/5 480/6/5 483/6/5
f 489/6/5 486/6/5 485/6/5
f 490/6/5 486/6/5 489/6/5
f 491/6/5 488/6/5 487/6/5
f 492/6/5 488/6/5 491/6/5
f 497/1/5 494/1/5 493/1/5
f 498/1/5 494/1/5 497/1/5
f 499/1/5 496/1/5 495/1/5
f 500/1/5 496/1/5 499/1/5
f 505/1/5 502/1/5 501/1/5
f 506/1/5 502/1/5 505/1/5
f 507/1/5 504/1/5 503/1/5
f 508/1/5 504/1/5 507/1/5
f 513/6/5 510/6/5 509/6/5
f 514/6/5 510/6/5 513/6/5
f 515/6/5 512/6/5 511/6/5
f 516/6/5 512/6/5 515/6/5
f 521/6/5 518/6/5 517/6/5
f 522/6/5 518/6/5 521/6/5
f 523/6/5 520/6/5 519/6/5
f 524/6/5 520/6/5 523/6/5
f 529/6/5 526/6/5 525/6/5
f 530/6/5 526/6/5 529/6/5
f 531/6/5 528/6/5 527/6/5
f 532/6/5 528/6/5 531/6/5
f 537/6/5 534/6/5 533/6/5
f 538/6/5 534/6/5 537/6/5
f 539/6/5 536/6/5 535/6/5
f 540/6/5 536/6/5 539/6/5
f 543/4/5 542/4/5 541/4/5
f 544/4/5 542/4/5 543/4/5
f 547/4/5 546/4/5 545/4/5
f 548/4/5 546/4/5 547/4/5
f 551/4/5 550/4/5 549/4/5
f 552/4/5 550/4/5 551/4/5
f 557/1/5 554/1/5 553/1/5
f 558/1/5 554/1/5 557/1/5
f 559/1/5 556/1/5 555/1/5
f 560/1/5 556/1/5 559/1/5
f 565/1/5 562/1/5 561/1/5
f 566/1/5 562/1/5 565/1/5
f 567/1/5 564/1/5 563/1/5
f 568/1/5 564/1/5 567/1/5
f 575/1/5 570/1/5 569/1/5
f 576/1/5 570/1/5 575/1/5
f 577/1/5 572/1/5 571/1/5
f 578/1/5 572/1/5 577/1/5
f 579/1/5 574/1/5 573/1/5
f 580/1/5 574/1/5 579/1/5
f 581/6/6 582/6/6 589/6/6
f 582/6/6 583/6/6 589/6/6
f 589/6/6 583/6/6 590/6/6
f 590/6/6 583/6/6 591/6/6
f 584/6/6 585/6/6 592/6/6
f 592/6/6 585/6/6 593/6/6
f 587/6/6 588/6/6 594/6/6
f 586/6/6 587/6/6 594/6/6
f 594/6/6 588/6/6 595/6/6
f 595/6/6 588/6/6 596/6/6
f 597/6/6 598/6/6 601/6/6
f 601/6/6 598/6/6 602/6/6
f 599/6/6 600/6/6 603/6/6
f 603/6/6 600/6/6 604/6/6
f 605/6/6 606/6/6 609/6/6
f 609/6/6 606/6/6 610/6/6
f 607/6/6 608/6/6 611/6/6
f 611/6/6 608/6/6 612/6/6
f 613/6/6 614/6/6 617/6/6
f 617/6/6 614/6/6 618/6/6
f 615/6/6 616/6/6 619/6/6
f 619/6/6 616/6/6 620/6/6
f 621/6/6 622/6/6 625/6/6
f 625/6/6 622/6/6 626/6/6
f 623/6/6 624/6/6 627/6/6
f 627/6/6 624/6/6 628/6/6
f 629/6/6 630/6/6 633/6/6
f 633/6/6 630/6/6 634/6/6
f 631/6/6 632/6/6 635/6/6
f 635/6/6 632/6/6 636/6/6
f 637/6/6 638/6/6 641/6/6
f 641/6/6 638/6/6 642/6/6
f 639/6/6 640/6/6 643/6/6
f 643/6/6 640/6/6 644/6/6
f 645/1/6 646/1/6 649/1/6
f 649/1/6 646/1/6 650/1/6
f 647/1/6 648/1/6 651/1/6
f 651/1/6 648/1/6 652/1/6
f 653/1/6 654/1/6 657/1/6
f 657/1/6 654/1/6 658/1/6
f 655/1/6 656/1/6 659/1/6
f 659/1/6 656/1/6 660/1/6
f 661/4/6 662/4/6 663/4/6
f 663/4/6 662/4/6 664/4/6
f 665/4/6 666/4/6 667/4/6
f 667/4/6 666/4/6 668/4/6
f 668/4/6 666/4/6 669/4/6
f 669/4/6 666/4/6 670/4/6
f 671/1/6 672/1/6 675/1/6
f 675/1/6 672/1/6 676/1/6
f 673/1/6 674/1/6 677/1/6
f 677/1/6 674/1/6 678/1/6
f 679/1/6 680/1/6 683/1/6
f 683/1/6 680/1/6 684/1/6
f 681/1/6 682/1/6 685/1/6
f 685/1/6 682/1/6 686/1/6
f 687/5/6 688/5/6 689/5/6
f 689/5/6 688/5/6 690/5/6
f 690/5/6 688/5/6 691/5/6
f 691/5/6 688/5/6 692/5/6
f 690/1/6 691/1/6 694/1/6
f 694/1/6 691/1/6 695/1/6
f 693/5/6 694/5/6 697/5/6
f 695/5/6 696/5/6 697/5/6
f 694/5/6 695/5/6 697/5/6
f 697/5/6 696/5/6 698/5/6
